<?xml version="1.0" encoding="UTF-8" standalone="no"?>
<svg width="433px" height="202px" viewBox="0 0 433 202" version="1.1" xmlns="http://www.w3.org/2000/svg" xmlns:xlink="http://www.w3.org/1999/xlink">
    <!-- Generator: Sketch 41.2 (35397) - http://www.bohemiancoding.com/sketch -->
    <title>Logo Appuio SCP-Prod RGB</title>
    <desc>Created with Sketch.</desc>
    <defs>
        <path d="M392.684154,0 L17.1039231,0 C7.40502564,0 2.84217094e-14,7.82480769 2.84217094e-14,17.5254615 L2.84217094e-14,133.193859 C2.84217094e-14,142.894513 7.40502564,151.051282 17.1039231,151.051282 L305.615385,151.051282 L305.615385,182.255667 L328.805269,151.051282 L392.682397,151.051282 C402.383051,151.051282 410.998244,142.894513 410.998244,133.193859 L410.998244,17.5254615 C411,7.82480769 402.384808,0 392.684154,0 Z" id="path-1"></path>
        <filter x="-50%" y="-50%" width="200%" height="200%" filterUnits="objectBoundingBox" id="filter-2">
            <feOffset dx="0" dy="4" in="SourceAlpha" result="shadowOffsetOuter1"></feOffset>
            <feGaussianBlur stdDeviation="5.5" in="shadowOffsetOuter1" result="shadowBlurOuter1"></feGaussianBlur>
            <feColorMatrix values="0 0 0 0 0   0 0 0 0 0.184313725   0 0 0 0 0.278431373  0 0 0 0.5 0" type="matrix" in="shadowBlurOuter1"></feColorMatrix>
        </filter>
    </defs>
    <g id="Page-1" stroke="none" stroke-width="1" fill="none" fill-rule="evenodd">
        <g id="neue-Logos" transform="translate(-643.000000, -468.000000)">
            <g id="Logo-Appuio-SCP-Prod-RGB" transform="translate(654.000000, 475.000000)">
                <g id="bg" transform="translate(0.000000, 0.000000)">
                    <g id="Shape">
                        <use fill="black" fill-opacity="1" filter="url(#filter-2)" xlink:href="#path-1"></use>
                        <use fill="#FFD301" fill-rule="evenodd" xlink:href="#path-1"></use>
                    </g>
                </g>
                <g id="logo" transform="translate(22.833333, 22.833333)" fill="#002F47">
                    <g id="Group" transform="translate(1.000000, 0.000000)">
                        <path d="M30.4959487,1.83017949 L0.471871795,73.7393718 L14.0910769,73.7393718 L19.9715385,59.3982821 L51.9557692,59.3982821 L57.8362308,73.7393718 L71.4536795,73.7393718 L41.431359,1.83017949 L30.4959487,1.83017949 Z M23.9972308,48.772 L35.9654103,19.4715641 L47.9335897,48.772 L23.9972308,48.772 Z" id="Shape"></path>
                        <path d="M106.230603,1.83017949 L78.7884487,1.83017949 L78.7884487,73.7393718 L91.6840128,73.7393718 L91.6840128,48.5665 L106.230603,48.5665 C118.198782,48.5665 129.650577,38.9712308 129.650577,25.2501538 C129.652333,10.7035641 117.682397,1.83017949 106.230603,1.83017949 Z M105.612346,36.9074487 L91.6840128,36.9074487 L91.6840128,13.4892308 L105.612346,13.4892308 C110.770923,13.4892308 116.856885,17.1004103 116.856885,25.2501538 C116.856885,33.1943974 110.770923,36.9074487 105.612346,36.9074487 Z" id="Shape"></path>
                        <path d="M150.706423,48.5665 L165.253013,48.5665 C177.221192,48.5665 188.672987,38.9712308 188.672987,25.2501538 C188.672987,10.7035641 176.704808,1.83017949 165.253013,1.83017949 L137.809103,1.83017949 L137.809103,73.7393718 L150.704667,73.7393718 L150.704667,48.5665 L150.706423,48.5665 Z M150.706423,13.4892308 L164.634756,13.4892308 C169.793333,13.4892308 175.879295,17.1004103 175.879295,25.2501538 C175.879295,33.1943974 169.793333,36.9092051 164.634756,36.9092051 L150.706423,36.9092051 L150.706423,13.4892308 Z" id="Shape"></path>
                        <path d="M254.524321,1.83017949 L241.628756,1.83017949 L241.628756,44.8516923 C241.628756,57.6436282 235.128282,63.2149615 225.431141,63.2149615 C215.628615,63.2149615 209.129897,57.6436282 209.129897,44.8516923 L209.129897,1.83017949 L196.234333,1.83017949 L196.234333,46.1935897 C196.234333,65.3823718 209.129897,74.8740128 225.431141,74.8740128 C241.628756,74.8740128 254.524321,65.3823718 254.524321,46.1935897 L254.524321,1.83017949 L254.524321,1.83017949 Z" id="Shape"></path>
                        <rect id="Rectangle-path" x="265.972603" y="21.7426026" width="12.3791795" height="51.9967692"></rect>
                        <path d="M272.162192,1.00466667 C268.138256,1.00466667 264.734333,4.20308974 264.734333,8.32889744 C264.734333,12.4564615 268.138256,15.6531282 272.162192,15.6531282 C276.0825,15.6531282 279.488179,12.4547051 279.488179,8.32889744 C279.488179,4.20308974 276.0825,1.00466667 272.162192,1.00466667 Z" id="Shape"></path>
                        <path d="M325.01609,75.1848974 C346.166782,75.1848974 363.086282,59.0909103 363.086282,37.9402179 C363.086282,16.7912821 346.166782,0.593666667 325.01609,0.593666667 C303.969026,0.593666667 287.049526,16.7912821 287.049526,37.9402179 C287.049526,59.0891538 303.969026,75.1848974 325.01609,75.1848974 Z M325.01609,12.2509615 C339.357179,12.2509615 350.29259,23.5991282 350.29259,37.9402179 C350.29259,52.3831795 339.355423,63.5276026 325.01609,63.5276026 C310.676756,63.5276026 299.73959,52.4885641 299.73959,37.9402179 C299.73959,23.4955 310.675,12.2509615 325.01609,12.2509615 Z" id="Shape"></path>
                    </g>
                    <g id="Group" transform="translate(0.000000, 85.307692)">
                        <path d="M2.61353846,12.8651026 C3.40041026,14.4160128 4.85296154,15.4733718 6.9185,15.4733718 C9.30546154,15.4733718 9.82184615,14.07 9.82184615,13.2339487 C9.82184615,11.6847949 8.41847436,11.0928846 6.32834615,10.3060128 C3.57253846,9.27324359 1.40688462,8.14211538 1.40688462,5.11582051 C1.40688462,2.28624359 3.8184359,0.489435897 6.72178205,0.489435897 C9.33005128,0.489435897 11.0021538,1.69608974 12.0120897,3.26983333 L9.82184615,4.76980769 C9.20534615,3.81080769 8.24810256,3.24524359 6.77096154,3.24524359 C5.41676923,3.24524359 4.43317949,4.00752564 4.43317949,5.06488462 C4.43317949,6.63862821 5.81020513,6.91087179 8.32011538,7.94364103 C11.4447692,9.19947436 12.8955641,10.5290769 12.8955641,13.1601795 C12.8955641,16.0635256 10.9266282,18.2291795 6.89391026,18.2291795 C3.62171795,18.2291795 1.35770513,16.6782692 0.300346154,14.3158974 L2.61353846,12.8651026 Z" id="Shape"></path>
                        <polygon id="Shape" points="14.0776282 0.784512821 17.0793333 0.784512821 20.5482436 12.2995385 24.0909231 0.784512821 26.402359 0.784512821 29.9450385 12.2995385 33.4385385 0.784512821 36.4156538 0.784512821 31.2974744 17.9341026 28.8613333 17.9341026 25.2448846 6.41907692 21.6038462 17.9341026 19.1922949 17.9341026"></polygon>
                        <polygon id="Shape" points="38.9343462 0.784512821 42.0098205 0.784512821 42.0098205 17.9341026 38.9343462 17.9341026"></polygon>
                        <path d="M47.0630128,12.8651026 C47.8498846,14.4160128 49.3024359,15.4733718 51.3679744,15.4733718 C53.7549359,15.4733718 54.2713205,14.07 54.2713205,13.2339487 C54.2713205,11.6847949 52.8679487,11.0928846 50.7778205,10.3060128 C48.0220128,9.27324359 45.856359,8.14211538 45.856359,5.11582051 C45.856359,2.28624359 48.2679103,0.489435897 51.1712564,0.489435897 C53.7795256,0.489435897 55.4516282,1.69608974 56.4615641,3.26983333 L54.2713205,4.76980769 C53.6548205,3.81080769 52.6975769,3.24524359 51.2204359,3.24524359 C49.8662436,3.24524359 48.8826538,4.00752564 48.8826538,5.06488462 C48.8826538,6.63862821 50.2596795,6.91087179 52.7695897,7.94364103 C55.8942436,9.19947436 57.3450385,10.5290769 57.3450385,13.1601795 C57.3450385,16.0635256 55.3761026,18.2291795 51.3433846,18.2291795 C48.0711923,18.2291795 45.8071795,16.6782692 44.7498205,14.3158974 L47.0630128,12.8651026 Z" id="Shape"></path>
                        <path d="M61.5692051,12.8651026 C62.3560769,14.4160128 63.8086282,15.4733718 65.8741667,15.4733718 C68.2611282,15.4733718 68.7775128,14.07 68.7775128,13.2339487 C68.7775128,11.6847949 67.3758974,11.0928846 65.2840128,10.3060128 C62.5282051,9.27324359 60.3625513,8.14211538 60.3625513,5.11582051 C60.3625513,2.28624359 62.7741026,0.489435897 65.6774487,0.489435897 C68.2857179,0.489435897 69.9595769,1.69608974 70.9677564,3.26983333 L68.7775128,4.76980769 C68.1627692,3.81080769 67.2037692,3.24524359 65.7266282,3.24524359 C64.3724359,3.24524359 63.3888462,4.00752564 63.3888462,5.06488462 C63.3888462,6.63862821 64.7658718,6.91087179 67.2757821,7.94364103 C70.4004359,9.19947436 71.8512308,10.5290769 71.8512308,13.1601795 C71.8512308,16.0635256 69.8822949,18.2291795 65.8495769,18.2291795 C62.5773846,18.2291795 60.3133718,16.6782692 59.2560128,14.3158974 L61.5692051,12.8651026 Z" id="Shape"></path>
                        <path d="M93.4410256,0.489435897 C96.1722436,0.489435897 98.5592051,1.6715 100.231308,3.56491026 L98.1394231,5.35996154 C96.9837051,4.05670513 95.3344359,3.26983333 93.4410256,3.26983333 C89.9967051,3.26983333 87.3884359,5.87810256 87.3884359,9.37160256 C87.3884359,12.8651026 89.9967051,15.4487821 93.4410256,15.4487821 C95.3361923,15.4487821 97.0328846,14.6619103 98.190359,13.3077179 L100.255897,15.1027692 C98.6083846,17.0471154 96.1722436,18.2274231 93.4410256,18.2274231 C88.3966154,18.2274231 84.3375513,14.4880256 84.3375513,9.36984615 C84.3375513,4.25342308 88.3983718,0.489435897 93.4410256,0.489435897 Z" id="Shape"></path>
                        <path d="M110.713564,0.489435897 C115.756218,0.489435897 119.790692,4.35178205 119.790692,9.39619231 C119.790692,14.4388462 115.756218,18.278359 110.713564,18.278359 C105.693744,18.278359 101.659269,14.4388462 101.659269,9.39619231 C101.657513,4.35178205 105.693744,0.489435897 110.713564,0.489435897 Z M110.713564,15.4979615 C114.133295,15.4979615 116.741564,12.8405128 116.741564,9.39619231 C116.741564,5.97646154 114.133295,3.26983333 110.713564,3.26983333 C107.293833,3.26983333 104.685564,5.95187179 104.685564,9.39619231 C104.685564,12.8651026 107.292077,15.4979615 110.713564,15.4979615 Z" id="Shape"></path>
                        <polygon id="Shape" points="122.976821 0.784512821 125.683449 0.784512821 134.760577 12.6929744 134.760577 0.784512821 137.737692 0.784512821 137.737692 17.9341026 135.227782 17.9341026 125.952179 5.80608974 125.952179 17.9341026 122.975064 17.9341026 122.975064 0.784512821"></polygon>
                        <polygon id="Shape" points="144.83359 3.56491026 140.184372 3.56491026 140.184372 0.784512821 152.560038 0.784512821 152.560038 3.56491026 147.910821 3.56491026 147.910821 17.9341026 144.835346 17.9341026 144.835346 3.56491026"></polygon>
                        <path d="M159.148333,0.784512821 L161.756603,0.784512821 L168.915731,17.9341026 L165.668128,17.9341026 L164.266513,14.5143718 L156.640179,14.5143718 L155.238564,17.9341026 L151.990962,17.9341026 L159.148333,0.784512821 Z M163.305756,11.9798718 L160.45159,4.99111538 L157.597423,11.9798718 L163.305756,11.9798718 Z" id="Shape"></path>
                        <polygon id="Shape" points="171.459013 0.784512821 174.534487 0.784512821 174.534487 17.9341026 171.459013 17.9341026"></polygon>
                        <polygon id="Shape" points="178.74109 0.784512821 181.447718 0.784512821 190.526603 12.6929744 190.526603 0.784512821 193.503718 0.784512821 193.503718 17.9341026 190.992051 17.9341026 181.716449 5.80608974 181.716449 17.9341026 178.739333 17.9341026 178.739333 0.784512821"></polygon>
                        <polygon id="Shape" points="197.683974 0.784512821 208.608846 0.784512821 208.608846 3.56491026 200.759449 3.56491026 200.759449 7.6485641 208.115295 7.6485641 208.115295 10.4289615 200.759449 10.4289615 200.759449 15.1519487 208.780974 15.1519487 208.780974 17.9323462 197.683974 17.9323462"></polygon>
                        <path d="M212.299064,0.784512821 L218.968154,0.784512821 C222.017282,0.784512821 224.527192,3.12229487 224.527192,6.22235897 C224.527192,8.48637179 223.246769,10.332359 221.404295,11.0928846 L225.561718,17.9341026 L222.091051,17.9341026 L218.425423,11.8323333 L218.376244,11.8323333 L215.374538,11.8323333 L215.374538,17.9341026 L212.299064,17.9341026 L212.299064,0.784512821 Z M218.646731,9.07476923 C220.32059,9.07476923 221.476308,7.91905128 221.476308,6.26978205 C221.476308,4.69603846 220.368013,3.56315385 218.892628,3.56315385 L215.372782,3.56315385 L215.372782,9.07476923 L218.646731,9.07476923 Z" id="Shape"></path>
                        <path d="M238.5855,0.784512821 L245.131641,0.784512821 C247.862859,0.784512821 250.717026,2.90098718 250.717026,6.36989744 C250.717026,9.64208974 247.985808,11.9306923 245.131641,11.9306923 L241.660974,11.9306923 L241.660974,17.9341026 L238.5855,17.9341026 L238.5855,0.784512821 Z M244.982346,9.14853846 C246.211833,9.14853846 247.662628,8.26330769 247.662628,6.36814103 C247.662628,4.42555128 246.211833,3.56315385 244.982346,3.56315385 L241.659218,3.56315385 L241.659218,9.14853846 L244.982346,9.14853846 Z" id="Shape"></path>
                        <polygon id="Shape" points="253.418385 0.784512821 256.493859 0.784512821 256.493859 15.1537051 263.310487 15.1537051 263.310487 17.9341026 253.418385 17.9341026"></polygon>
                        <path d="M272.391128,0.784512821 L274.997641,0.784512821 L282.156769,17.9341026 L278.909167,17.9341026 L277.505795,14.5143718 L269.879462,14.5143718 L268.47609,17.9341026 L265.228487,17.9341026 L272.391128,0.784512821 Z M276.548551,11.9798718 L273.694385,4.99111538 L270.840218,11.9798718 L276.548551,11.9798718 Z" id="Shape"></path>
                        <polygon id="Shape" points="286.259744 3.56491026 281.610526 3.56491026 281.610526 0.784512821 293.986192 0.784512821 293.986192 3.56491026 289.336974 3.56491026 289.336974 17.9341026 286.2615 17.9341026 286.2615 3.56491026"></polygon>
                        <polygon id="Shape" points="296.420577 0.784512821 306.804474 0.784512821 306.804474 3.56491026 299.496051 3.56491026 299.496051 7.86987179 306.165141 7.86987179 306.165141 10.6502692 299.496051 10.6502692 299.496051 17.9323462 296.420577 17.9323462"></polygon>
                        <path d="M317.801359,0.489435897 C322.845769,0.489435897 326.880244,4.35178205 326.880244,9.39619231 C326.880244,14.4388462 322.845769,18.278359 317.801359,18.278359 C312.783295,18.278359 308.748821,14.4388462 308.748821,9.39619231 C308.747064,4.35178205 312.781538,0.489435897 317.801359,0.489435897 Z M317.801359,15.4979615 C321.22109,15.4979615 323.829359,12.8405128 323.829359,9.39619231 C323.829359,5.97646154 321.222846,3.26983333 317.801359,3.26983333 C314.379872,3.26983333 311.773359,5.95187179 311.773359,9.39619231 C311.773359,12.8651026 314.379872,15.4979615 317.801359,15.4979615 Z" id="Shape"></path>
                        <path d="M330.064615,0.784512821 L336.733705,0.784512821 C339.782833,0.784512821 342.292744,3.12229487 342.292744,6.22235897 C342.292744,8.48637179 341.012321,10.332359 339.169846,11.0928846 L343.327269,17.9341026 L339.856603,17.9341026 L336.190974,11.8323333 L336.141795,11.8323333 L333.14009,11.8323333 L333.14009,17.9341026 L330.064615,17.9341026 L330.064615,0.784512821 Z M336.412282,9.07476923 C338.086141,9.07476923 339.241859,7.91905128 339.241859,6.26978205 C339.241859,4.69603846 338.133564,3.56315385 336.658179,3.56315385 L333.138333,3.56315385 L333.138333,9.07476923 L336.412282,9.07476923 Z" id="Shape"></path>
                        <polygon id="Shape" points="345.975936 0.784512821 348.608795 0.784512821 354.759744 10.4061282 360.886103 0.784512821 363.492615 0.784512821 363.492615 17.9341026 360.591026 17.9341026 360.591026 6.32247436 354.759744 15.3750128 348.879282 6.34530769 348.879282 17.9341026 345.975936 17.9341026"></polygon>
                    </g>
                </g>
            </g>
        </g>
    </g>
</svg>