<svg xmlns="http://www.w3.org/2000/svg" xmlns:xlink="http://www.w3.org/1999/xlink" viewBox="0 0 109 32" fill="#fff" fill-rule="evenodd" stroke="#000" stroke-linecap="round" stroke-linejoin="round"><use xlink:href="#H" x=".5" y=".5"/><defs><linearGradient id="A" x1="49.90%" y1="-0.06%" x2="49.90%" y2="99.92%"><stop offset="0%" stop-color="#81b4e0"/><stop offset="100%" stop-color="#0c5a94"/></linearGradient><linearGradient id="B" x1="50.00%" y1="0.14%" x2="50.00%" y2="71.69%"><stop offset="0%" stop-color="#f06b59"/><stop offset="100%" stop-color="#df2227"/></linearGradient><linearGradient id="C" x1="18.17%" y1="81.96%" x2="48.83%" y2="38.28%"><stop offset="0%" stop-color="#388b41"/><stop offset="100%" stop-color="#4cb749"/></linearGradient><linearGradient id="D" x1="65.07%" y1="85.35%" x2="24.38%" y2="12.21%"><stop offset="0%" stop-color="#e4b022"/><stop offset="30%" stop-color="#fcd209"/></linearGradient><linearGradient id="E" x1="50.00%" y1="96.30%" x2="50.00%" y2="-2.47%"><stop offset="0%" stop-opacity=".15"/><stop offset="30%" stop-opacity=".06"/><stop offset="100%" stop-opacity=".03"/></linearGradient><linearGradient id="F" x1="105.92%" y1="8.57%" x2="-6.33%" y2="78.55%"><stop offset="0%" stop-opacity=".15"/><stop offset="30%" stop-opacity=".06"/><stop offset="100%" stop-opacity=".03"/></linearGradient><linearGradient id="G" x1="39.91%" y1="547.10%" x2="47.67%" y2="131.33%"><stop offset="0%" stop-opacity=".15"/><stop offset="30%" stop-opacity=".06"/><stop offset="100%" stop-opacity=".03"/></linearGradient></defs><symbol id="H" overflow="visible"><g stroke="none" fill-rule="nonzero"><path d="M45.414 22.944c-.52.25-1.678.635-3.15.635-3.31 0-5.464-2.244-5.464-5.594 0-3.38 2.313-5.85 5.895-5.85 1.18 0 2.222.295 2.766.6l-.453 1.518c-.476-.25-1.225-.522-2.313-.522-2.517 0-3.878 1.883-3.878 4.15 0 2.54 1.633 4.103 3.81 4.103a5.71 5.71 0 0 0 2.449-.521zM47.75 7.23h1.995v6.87h.045a3.76 3.76 0 0 1 1.429-1.429c.59-.333 1.292-.544 2.04-.544 1.474 0 3.832.907 3.832 4.67v6.53h-1.988v-6.303c0-1.768-.657-3.242-2.54-3.242-1.292 0-2.29.906-2.676 1.97-.113.295-.136.6-.136.952v6.622h-1.995zm12.584 8.547l-.09-3.424h1.746l.09 2.178h.068c.5-1.473 1.73-2.397 3.062-2.397.205 0 .362.023.543.047v1.883c-.204-.045-.407-.045-.68-.045-1.398 0-2.397 1.043-2.677 2.54-.045.266-.068.613-.068.93v5.843h-1.996v-7.55zm17.114 1.973c0 4.058-2.835 5.827-5.465 5.827-2.947 0-5.26-2.177-5.26-5.647 0-3.65 2.427-5.805 5.442-5.805 3.15 0 5.283 2.29 5.283 5.624zm-8.683.113c0 2.403 1.36 4.217 3.3 4.217 1.904 0 3.333-1.798 3.333-4.262 0-1.86-.93-4.195-3.288-4.195-2.336.001-3.356 2.178-3.356 4.242zm11.2-2.54l-.1-2.97h1.745l.09 1.798h.07c.613-1.043 1.633-2.018 3.463-2.018 1.473 0 2.607.907 3.083 2.2h.045c.333-.635.794-1.09 1.247-1.428.657-.5 1.36-.773 2.397-.773 1.474 0 3.627.952 3.627 4.76v6.44h-1.936v-6.197c0-2.13-.794-3.378-2.38-3.378-1.156 0-2.018.84-2.38 1.798-.09.295-.16.635-.16 1v6.78h-1.95v-6.576c0-1.746-.77-2.993-2.29-2.993-1.225 0-2.154.998-2.472 1.995-.113.266-.16.635-.16.975v6.598h-1.95zm20.02 2.88c.045 2.698 1.746 3.81 3.764 3.81 1.43 0 2.313-.25 3.04-.566l.363 1.43c-.703.317-1.927.702-3.673.702-3.378 0-5.397-2.244-5.397-5.555s1.95-5.895 5.147-5.895c3.606 0 4.528 3.13 4.528 5.147 0 .41-.023.703-.07.93h-7.703zm5.85-1.428c.023-1.247-.52-3.22-2.766-3.22-2.04 0-2.902 1.838-3.06 3.22z" fill="#77787a"/><path d="M.273 15.463A15.13 15.13 0 0 1 15.436.3 15.13 15.13 0 0 1 30.6 15.463a15.13 15.13 0 0 1-15.163 15.163A15.13 15.13 0 0 1 .273 15.463z"/><path d="M25.086 18.22a9.65 9.65 0 0 0-9.649-9.65 9.65 9.65 0 0 0-9.65 9.65h2.757c0-3.807 3.086-6.892 6.892-6.892s6.892 3.086 6.892 6.892m-11.44-.827c0-2.902 2.336-5.238 5.238-5.238s5.238 2.336 5.238 5.238a5.23 5.23 0 0 1-5.238 5.24c-2.902 0-5.238-2.336-5.238-5.24z" fill-opacity=".1" fill="#000"/><path d="M9.784 15.463a5.64 5.64 0 0 1 5.652-5.652 5.64 5.64 0 0 1 5.652 5.652 5.64 5.64 0 0 1-5.652 5.652 5.64 5.64 0 0 1-5.652-5.652z" fill="url(#A)"/><path d="M29.22 8.57C25.426.935 16.16-2.178 8.524 1.617 6.143 2.8 4.11 4.578 2.617 6.78L8.82 17.532c-1.143-3.63.875-7.5 4.506-8.643.64-.2 1.303-.308 1.972-.317" fill="url(#B)"/><path d="M2.617 6.778C-2.13 13.86-.24 23.448 6.844 28.2a15.44 15.44 0 0 0 7.352 2.564l6.482-11.03a6.89 6.89 0 0 1-11.855-2.206" fill="url(#C)"/><path d="M14.196 30.765c8.502.643 15.916-5.73 16.56-14.23a15.44 15.44 0 0 0-1.533-7.963h-13.92c3.807.018 6.875 3.117 6.86 6.924-.007 1.54-.53 3.033-1.485 4.242" fill="url(#D)"/><path d="M2.617 6.778L8.82 17.53c-.456-1.547-.358-3.205.275-4.687L2.892 6.365" fill="url(#E)"/><path d="M14.195 30.764l6.482-11.03c-1.022 1.22-2.435 2.047-3.998 2.343l-2.757 8.684" fill="url(#F)"/><path d="M29.22 8.57H15.3c2.097.01 4.073.974 5.376 2.62L29.5 8.983" fill="url(#G)"/></g></symbol></svg>