<svg xmlns="http://www.w3.org/2000/svg" xmlns:xlink="http://www.w3.org/1999/xlink" viewBox="0 0 112 39" fill="#fff" fill-rule="evenodd" stroke="#000" stroke-linecap="round" stroke-linejoin="round"><use xlink:href="#A" x=".5" y=".5"/><symbol id="A" overflow="visible"><g stroke="none" fill-rule="nonzero"><path d="M14.504 34.987h4.24v2.127h-6.68V28.34h2.44zm6.756-2.235v-.03c0-2.518 2.033-4.567 4.74-4.567s4.708 2.018 4.708 4.536v.03c0 2.518-2.033 4.567-4.74 4.567s-4.708-2.018-4.708-4.536m6.976 0v-.03c0-1.267-.907-2.362-2.252-2.362-1.33 0-2.22 1.08-2.22 2.346v.03c0 1.267.907 2.362 2.237 2.362 1.345 0 2.237-1.08 2.237-2.346m5.466.515V28.34h2.47v4.88c0 1.267.64 1.86 1.6 1.86s1.6-.58 1.6-1.8v-4.942h2.47v4.864c0 2.83-1.6 4.067-4.113 4.067-2.487 0-4.05-1.25-4.05-4.004m11.88-4.925h3.378c3.128 0 4.958 1.8 4.958 4.332v.03c0 2.534-1.846 4.4-5.005 4.4h-3.33v-8.774zm3.425 6.616c1.455 0 2.424-.798 2.424-2.22v-.03c0-1.408-.97-2.22-2.424-2.22H48v4.458h.985zm8.466-6.616h7.023v2.127h-4.598v1.502h4.16v2.018h-4.16v3.128h-2.423zm12.825 6.647h4.254v2.127h-6.68V28.34h2.424zm10.604-6.7h2.346l3.738 8.837h-2.6l-.64-1.564h-3.38l-.626 1.564h-2.55l3.722-8.837zm2.143 5.38l-.97-2.487-.985 2.487h1.955zm7.08-5.317h4.145c1.345 0 2.268.344 2.862.954.516.5.782 1.173.782 2.05v.03c0 1.345-.72 2.237-1.8 2.7l2.096 3.066h-2.815l-1.767-2.66h-1.073v2.66h-2.43v-8.8zm4.035 4.207c.83 0 1.298-.407 1.298-1.032v-.03c0-.688-.5-1.032-1.314-1.032h-1.595v2.096h1.6zm9.665 2.493h4.708v2.065h-7.116v-8.773h7.054v2.065h-4.646v1.33h4.207v1.924h-4.207zm-97.06-1.268c-.344.766-1.064 1.314-2.002 1.314-1.33 0-2.237-1.1-2.237-2.362v-.03c0-1.267.892-2.346 2.22-2.346 1 0 1.767.6 2.08 1.455H9.37c-.407-2.096-2.252-3.644-4.63-3.644-2.706 0-4.74 2.05-4.74 4.567v.03c.004 2.518 2.006 4.536 4.712 4.536 2.315 0 4.13-1.502 4.598-3.504l-2.565-.016z" fill="#404041"/><path d="M97.704 10.002l-27.45.188v13.936h35.316v-9.784l-6.7-3.848z"/><path d="M93.347 22.834c.328-1.126.203-2.158-.344-2.925-.5-.704-1.345-1.1-2.362-1.157l-19.254-.25c-.125 0-.235-.063-.297-.156s-.078-.22-.047-.344a.53.53 0 0 1 .454-.344l19.426-.25c2.3-.1 4.802-1.97 5.678-4.254l1.1-2.894a.62.62 0 0 0 .031-.375C96.482 4.223 91.43 0 85.392 0a12.65 12.65 0 0 0-11.98 8.587c-1.095-.813-2.487-1.25-3.988-1.1a5.7 5.7 0 0 0-5.083 5.083 5.97 5.97 0 0 0 .14 1.986 8.08 8.08 0 0 0-7.852 8.086 9.85 9.85 0 0 0 .078 1.173c.03.188.188.328.375.328h35.535c.203 0 .4-.14.454-.344l.266-.954z" fill="#f38020"/><path d="M99.478 10.462l-.532.016c-.125 0-.235.094-.282.22l-.75 2.612c-.328 1.126-.203 2.158.344 2.925.5.704 1.345 1.1 2.362 1.157l4.098.25c.125 0 .235.063.297.156a.44.44 0 0 1 .047.344.53.53 0 0 1-.454.344l-4.27.25c-2.315.1-4.802 1.97-5.678 4.254l-.313.798c-.063.156.047.313.22.313h14.67c.172 0 .328-.1.375-.282a10.69 10.69 0 0 0 .391-2.847c-.016-5.804-4.722-10.503-10.526-10.51" fill="#faae40"/></g></symbol></svg>