<?xml version="1.0" encoding="UTF-8" standalone="no"?>
<svg
   xmlns:dc="http://purl.org/dc/elements/1.1/"
   xmlns:cc="http://creativecommons.org/ns#"
   xmlns:rdf="http://www.w3.org/1999/02/22-rdf-syntax-ns#"
   xmlns:svg="http://www.w3.org/2000/svg"
   xmlns="http://www.w3.org/2000/svg"
   id="svg12"
   version="1.1"
   viewBox="0 0 138 26"
   style="width: 138px; height: 26px;"
   class="dicon   "
   preserveAspectRatio="xMidYMid meet">
  <metadata
     id="metadata18">
    <rdf:RDF>
      <cc:Work
         rdf:about="">
        <dc:format>image/svg+xml</dc:format>
        <dc:type
           rdf:resource="http://purl.org/dc/dcmitype/StillImage" />
        <dc:title></dc:title>
      </cc:Work>
    </rdf:RDF>
  </metadata>
  <defs
     id="defs16" />
  <g
     id="g10">
    <path
       d="m 63.12,14.601 c 0.292,-0.29 0.633,-0.519 1.023,-0.687 0.389,-0.168 0.806,-0.252 1.25,-0.252 0.402,0 0.773,0.067 1.114,0.202 0.341,0.134 0.667,0.333 0.977,0.595 0.183,0.147 0.39,0.22 0.62,0.22 0.275,0 0.501,-0.091 0.68,-0.275 a 0.943,0.943 0 0 0 0.27,-0.687 0.932,0.932 0 0 0 -0.329,-0.724 c -0.937,-0.83 -2.048,-1.245 -3.332,-1.245 -1.412,0 -2.617,0.5 -3.615,1.502 -0.998,1.002 -1.497,2.211 -1.497,3.628 0,1.417 0.499,2.626 1.497,3.628 0.998,1.001 2.203,1.502 3.615,1.502 1.278,0 2.39,-0.415 3.332,-1.245 a 0.968,0.968 0 0 0 0.302,-0.706 0.92,0.92 0 0 0 -0.95,-0.953 1.021,1.021 0 0 0 -0.602,0.202 c -0.305,0.263 -0.627,0.46 -0.968,0.591 -0.34,0.131 -0.712,0.197 -1.114,0.197 -0.444,0 -0.861,-0.084 -1.25,-0.252 a 3.199,3.199 0 0 1 -1.963,-2.964 3.194,3.194 0 0 1 0.94,-2.277 z m 15.771,-2.267 a 1.055,1.055 0 0 0 -0.205,-0.307 0.893,0.893 0 0 0 -0.301,-0.206 0.951,0.951 0 0 0 -0.374,-0.073 0.926,0.926 0 0 0 -0.512,0.146 l -5.46,3.564 V 8.312 a 0.93,0.93 0 0 0 -0.278,-0.683 0.913,0.913 0 0 0 -0.67,-0.279 0.924,0.924 0 0 0 -0.68,0.28 0.929,0.929 0 0 0 -0.28,0.682 v 12.735 c 0,0.262 0.093,0.488 0.28,0.678 0.185,0.189 0.412,0.283 0.68,0.283 a 0.906,0.906 0 0 0 0.67,-0.283 0.935,0.935 0 0 0 0.279,-0.678 v -3.308 l 1.114,-0.733 4.218,4.755 a 0.88,0.88 0 0 0 0.639,0.247 0.951,0.951 0 0 0 0.374,-0.073 0.902,0.902 0 0 0 0.301,-0.206 c 0.085,-0.088 0.154,-0.19 0.205,-0.307 a 0.885,0.885 0 0 0 0.078,-0.367 0.97,0.97 0 0 0 -0.265,-0.668 l -3.925,-4.434 3.825,-2.492 c 0.244,-0.165 0.365,-0.418 0.365,-0.76 a 0.887,0.887 0 0 0 -0.078,-0.367 z m -21.838,5.785 a 3.255,3.255 0 0 1 -1.702,1.718 3.08,3.08 0 0 1 -1.251,0.257 c -0.45,0 -0.87,-0.086 -1.26,-0.257 a 3.225,3.225 0 0 1 -1.013,-0.691 3.284,3.284 0 0 1 -0.68,-1.022 3.128,3.128 0 0 1 -0.252,-1.246 c 0,-0.44 0.084,-0.855 0.251,-1.246 0.168,-0.39 0.395,-0.731 0.68,-1.022 0.286,-0.29 0.624,-0.52 1.014,-0.691 0.39,-0.171 0.81,-0.257 1.26,-0.257 0.444,0 0.86,0.086 1.25,0.257 a 3.257,3.257 0 0 1 1.703,1.717 c 0.168,0.388 0.251,0.802 0.251,1.242 0,0.44 -0.083,0.854 -0.251,1.241 z M 57.715,13.25 C 56.705,12.248 55.5,11.748 54.1,11.748 c -1.412,0 -2.617,0.5 -3.615,1.502 -0.998,1.002 -1.498,2.211 -1.498,3.628 0,1.417 0.5,2.626 1.498,3.628 0.998,1.001 2.203,1.502 3.615,1.502 1.4,0 2.605,-0.5 3.615,-1.502 0.998,-0.99 1.497,-2.199 1.497,-3.628 a 5.3,5.3 0 0 0 -0.379,-1.97 5.031,5.031 0 0 0 -1.118,-1.658 z m 41.03,-0.861 a 1.797,1.797 0 0 0 -0.644,-0.39 3.775,3.775 0 0 0 -0.85,-0.197 7.268,7.268 0 0 0 -0.862,-0.054 4.97,4.97 0 0 0 -1.716,0.293 5.234,5.234 0 0 0 -1.489,0.842 V 12.7 a 0.92,0.92 0 0 0 -0.278,-0.673 0.913,0.913 0 0 0 -0.671,-0.28 0.923,0.923 0 0 0 -0.68,0.28 0.92,0.92 0 0 0 -0.279,0.673 v 8.355 a 0.92,0.92 0 0 0 0.279,0.674 c 0.185,0.186 0.412,0.28 0.68,0.28 a 0.914,0.914 0 0 0 0.671,-0.28 0.92,0.92 0 0 0 0.278,-0.674 v -4.177 a 3.232,3.232 0 0 1 0.936,-2.277 c 0.29,-0.29 0.629,-0.519 1.018,-0.687 0.39,-0.168 0.807,-0.252 1.25,-0.252 0.451,0 0.868,0.077 1.252,0.23 0.152,0.067 0.286,0.1 0.401,0.1 a 0.95,0.95 0 0 0 0.375,-0.073 0.89,0.89 0 0 0 0.3,-0.207 c 0.086,-0.088 0.154,-0.19 0.206,-0.306 A 0.913,0.913 0 0 0 99,13.03 0.853,0.853 0 0 0 98.744,12.389 Z m -16.708,3.536 c 0.097,-0.336 0.247,-0.643 0.448,-0.92 0.2,-0.278 0.438,-0.516 0.711,-0.715 0.274,-0.199 0.576,-0.353 0.904,-0.463 a 3.175,3.175 0 0 1 2.023,0 3.279,3.279 0 0 1 1.606,1.177 c 0.204,0.278 0.358,0.585 0.461,0.921 z m 6.692,-2.675 c -1.01,-1.002 -2.216,-1.502 -3.615,-1.502 -1.412,0 -2.618,0.5 -3.616,1.502 -0.998,1.002 -1.497,2.211 -1.497,3.628 0,1.417 0.5,2.626 1.497,3.628 0.998,1.001 2.204,1.502 3.616,1.502 1.284,0 2.398,-0.415 3.341,-1.245 a 0.954,0.954 0 0 0 0.274,-0.688 0.927,0.927 0 0 0 -0.27,-0.682 0.918,0.918 0 0 0 -0.68,-0.27 0.995,0.995 0 0 0 -0.63,0.238 3.011,3.011 0 0 1 -0.93,0.55 3.202,3.202 0 0 1 -1.105,0.183 c -0.353,0 -0.693,-0.055 -1.018,-0.165 a 3.28,3.28 0 0 1 -0.895,-0.463 3.197,3.197 0 0 1 -1.164,-1.635 h 7.23 a 0.94,0.94 0 0 0 0.959,-0.953 c 0,-0.708 -0.125,-1.367 -0.374,-1.974 A 4.991,4.991 0 0 0 88.729,13.25 Z m -42.988,4.87 a 3.245,3.245 0 0 1 -1.703,1.718 c -0.389,0.17 -0.806,0.256 -1.25,0.256 -0.45,0 -0.87,-0.086 -1.26,-0.257 a 3.227,3.227 0 0 1 -1.013,-0.691 3.272,3.272 0 0 1 -0.68,-1.022 3.134,3.134 0 0 1 -0.251,-1.246 c 0,-0.44 0.083,-0.855 0.25,-1.246 0.168,-0.39 0.395,-0.731 0.68,-1.022 0.287,-0.29 0.624,-0.52 1.014,-0.691 0.39,-0.171 0.81,-0.257 1.26,-0.257 0.444,0 0.861,0.086 1.25,0.257 a 3.246,3.246 0 0 1 1.703,1.717 c 0.168,0.388 0.251,0.802 0.251,1.242 a 3.1,3.1 0 0 1 -0.25,1.241 z m 1.2,-10.77 a 0.922,0.922 0 0 0 -0.949,0.953 v 4.571 c -0.925,-0.751 -1.993,-1.126 -3.204,-1.126 -1.412,0 -2.617,0.5 -3.615,1.502 -0.999,1.002 -1.497,2.211 -1.497,3.628 0,1.417 0.498,2.626 1.497,3.628 0.998,1.001 2.203,1.502 3.615,1.502 1.4,0 2.605,-0.5 3.615,-1.502 0.999,-0.99 1.498,-2.199 1.498,-3.628 V 8.303 A 0.94,0.94 0 0 0 46.942,7.35 Z m -26.46,4.136 h 3.74 V 8.108 h -3.74 z m -4.419,0 h 3.74 V 8.108 h -3.74 z m -4.418,0 h 3.739 V 8.108 h -3.74 v 3.378 z m -4.42,0 h 3.74 V 8.108 h -3.74 z m -4.418,0 H 6.545 V 8.108 H 2.806 Z M 7.225,7.432 h 3.739 V 4.054 h -3.74 v 3.378 z m 4.419,0 h 3.739 V 4.054 h -3.74 v 3.378 z m 4.418,0 h 3.74 V 4.054 h -3.74 z m 0,-4.054 h 3.74 V 0 h -3.74 z M 31.32,9.046 C 31.134,7.694 30.376,6.522 28.997,5.462 L 28.205,4.937 27.675,5.726 C 27,6.74 26.66,8.146 26.772,9.495 c 0.05,0.474 0.207,1.323 0.698,2.069 -0.49,0.262 -1.456,0.623 -2.739,0.598 H 0.14 l -0.049,0.282 c -0.23,1.355 -0.226,5.583 2.537,8.833 2.099,2.47 5.247,3.723 9.356,3.723 8.906,0 15.495,-4.075 18.58,-11.482 1.213,0.024 3.827,0.007 5.17,-2.541 0.034,-0.058 0.115,-0.212 0.349,-0.695 L 36.212,10.018 35.457,9.517 C 34.64,8.974 32.764,8.775 31.32,9.046 Z"
       id="path2"
       style="fill:#000000;fill-rule:evenodd" />
    <g
       id="Page-1"
       style="opacity:0.5;fill:none;fill-rule:evenodd;stroke:none;stroke-width:1">
      <g
         id="hub"
         style="fill:#000000"
         aria-label="hub">
        <path
           id="path118"
           style=""
           d="m 107.516,12.064 q 1.242,0 2.232,0.54 0.99,0.54 1.548,1.584 0.558,1.026 0.558,2.484 V 21.1 q 0,0.396 -0.27,0.666 -0.252,0.252 -0.648,0.252 -0.396,0 -0.666,-0.252 -0.252,-0.27 -0.252,-0.666 v -4.428 q 0,-1.458 -0.792,-2.196 -0.774,-0.756 -2.07,-0.756 -0.756,0 -1.386,0.306 -0.612,0.306 -0.972,0.828 -0.342,0.522 -0.342,1.17 V 21.1 q 0,0.396 -0.252,0.666 -0.252,0.252 -0.666,0.252 -0.396,0 -0.666,-0.252 -0.252,-0.27 -0.252,-0.666 V 8.86 q 0,-0.414 0.252,-0.666 0.27,-0.252 0.666,-0.252 0.414,0 0.666,0.252 0.252,0.252 0.252,0.666 v 4.41 q 0.576,-0.576 1.368,-0.882 0.792,-0.324 1.692,-0.324 z" />
        <path
           id="path120"
           style=""
           d="m 123.04269,12.136 q 0.414,0 0.666,0.252 0.252,0.252 0.252,0.666 v 8.028 q 0,0.396 -0.252,0.666 -0.252,0.252 -0.666,0.252 -0.396,0 -0.666,-0.252 -0.252,-0.27 -0.252,-0.666 v -0.198 q -0.576,0.576 -1.368,0.9 -0.792,0.306 -1.692,0.306 -1.242,0 -2.232,-0.54 -0.99,-0.54 -1.548,-1.566 -0.558,-1.044 -0.558,-2.502 v -4.428 q 0,-0.396 0.252,-0.648 0.27,-0.27 0.666,-0.27 0.396,0 0.648,0.27 0.27,0.252 0.27,0.648 v 4.428 q 0,1.458 0.774,2.214 0.792,0.738 2.088,0.738 0.756,0 1.368,-0.306 0.63,-0.306 0.972,-0.828 0.36,-0.522 0.36,-1.17 v -5.076 q 0,-0.414 0.252,-0.666 0.27,-0.252 0.666,-0.252 z" />
        <path
           id="path122"
           style=""
           d="m 132.50422,12.082 q 1.296,0 2.34,0.648 1.062,0.648 1.656,1.8 0.612,1.134 0.612,2.538 0,1.404 -0.648,2.556 -0.648,1.134 -1.8,1.8 -1.134,0.648 -2.52,0.648 -1.386,0 -2.52,-0.648 -1.116,-0.666 -1.782,-1.8 -0.648,-1.152 -0.648,-2.556 V 8.86 q 0,-0.414 0.252,-0.666 0.27,-0.252 0.666,-0.252 0.414,0 0.666,0.252 0.252,0.252 0.252,0.666 v 4.86 q 0.63,-0.774 1.53,-1.206 0.9,-0.432 1.944,-0.432 z m -0.36,8.37 q 0.9,0 1.62,-0.432 0.738,-0.45 1.152,-1.224 0.432,-0.774 0.432,-1.728 0,-0.954 -0.432,-1.71 -0.414,-0.774 -1.152,-1.206 -0.72,-0.45 -1.62,-0.45 -0.9,0 -1.638,0.45 -0.72,0.432 -1.134,1.206 -0.414,0.756 -0.414,1.71 0,0.954 0.414,1.728 0.414,0.774 1.134,1.224 0.738,0.432 1.638,0.432 z" />
      </g>
    </g>
  </g>
</svg>
