<svg xmlns="http://www.w3.org/2000/svg" viewBox="0 0 282.17 67.29"><defs><style>.cls-3{fill:#0064c8;fill-rule:evenodd}</style><linearGradient id="linear-gradient" x1="29.86" y1="58.99" x2="29.86" y2=".05" gradientUnits="userSpaceOnUse"><stop offset="0" stop-color="#0056b3"/><stop offset=".25" stop-color="#0056b3"/><stop offset=".7" stop-color="#0088fb"/><stop offset="1" stop-color="#00acff"/></linearGradient></defs><g id="Слой_2" data-name="Слой 2"><g id="Слой_1-2" data-name="Слой 1"><path d="M71 39.75h9.25v5.62a5.1 5.1 0 0 0 1.34 3.76 6.07 6.07 0 0 0 4.15 1.2 5.3 5.3 0 0 0 4.13-1.47c.72-.89 1.07-2.81 1.07-5.75V15.82a4.55 4.55 0 0 1 1.47-3.41 4.89 4.89 0 0 1 3.5-1.41h4.56v32.5a35.56 35.56 0 0 1-.41 6.42 10.63 10.63 0 0 1-1.74 3.61 11.83 11.83 0 0 1-5 3.47 25.19 25.19 0 0 1-7.5 1.07c-4.15 0-8.95-.86-11.91-4a9.27 9.27 0 0 1-2.27-3.73 27.55 27.55 0 0 1-.67-7v-3.59zm58.13 6.67h6.69a14.62 14.62 0 0 1-5.61 8.58 17 17 0 0 1-10.44 3.08c-5.08 0-9.07-1.66-11.92-5s-4.29-7.8-4.29-13.78q0-8.56 4.16-13.37t11.92-5q8 0 12.45 4.81t4.28 13.76a16.18 16.18 0 0 1-.14 2.4h-23.15c.09 2.79.75 4.85 2 6.2a6.3 6.3 0 0 0 5.22 2.16c4.14 0 3.89-1.31 6.35-3.23a4 4 0 0 1 2.48-.67zm-16.05-10.48h13.65a8.55 8.55 0 0 0-1.87-5.33 6.41 6.41 0 0 0-4.94-1.86 6.52 6.52 0 0 0-4.82 1.86 7.63 7.63 0 0 0-2 5.33zM139.38 11h4.83a4.52 4.52 0 0 1 3.22 1.27 4.16 4.16 0 0 1 1.34 3.15v42.65h-9.39V11zm33.89 28.44a25.23 25.23 0 0 1-5.27 1.73l-3.08.67c-2.55.71-4.43 1.74-4.43 4.68a4.31 4.31 0 0 0 1.21 3.21 5 5 0 0 0 3.48 1.07 7.43 7.43 0 0 0 8.05-8v-3.36zm2.14 16.42c-5.38 2.82-14.85 3.24-20-.47q-3.61-2.6-3.62-8.63c0-3.76 1.1-6.43 3.29-8 5.15-3.8 18-3.07 18-7.23 0-2.82-3.72-3.22-5.89-3.22a9.57 9.57 0 0 0-3.35.55 3.67 3.67 0 0 0-2.13 2.06h-9a10.33 10.33 0 0 1 3.83-6.92q3.61-3.08 10.3-3.08 7.5 0 11.25 2.55A8.57 8.57 0 0 1 182 31v12.15q0 5.36-1.94 8.37a12 12 0 0 1-4.62 4.34zM185 45.6h9.1a4.9 4.9 0 0 0 2 4 9.56 9.56 0 0 0 5.35 1.34 8.55 8.55 0 0 0 4.14-.94 2.85 2.85 0 0 0 1.61-2.53q0-2.42-5.63-3.61a25.47 25.47 0 0 1-3.62-.81q-7.11-1.73-9.51-4.13a8.19 8.19 0 0 1-2.68-6.42 10.63 10.63 0 0 1 3.88-8.43q4-3.07 10.45-3.07 7 0 11.11 3.08a11.72 11.72 0 0 1 4.14 8.7h-5.75c-4.17 0-3.24-4.59-9.36-4.59a8 8 0 0 0-4 .8 2.72 2.72 0 0 0-1.2 2.42c0 3.32 14.72 4.51 19 8.16a8.43 8.43 0 0 1 2.59 6.43 10.71 10.71 0 0 1-4.29 9.11q-4 2.95-12 2.95-7.64 0-11.37-3.08Q185 51.9 185 46v-.4zm49.39 12.18c-6 .37-14.73 1.63-14.73-6.69V11.73h4.83a4.27 4.27 0 0 1 3.08 1.34 4.37 4.37 0 0 1 1.34 3.21v6h5.48v1.88a4.32 4.32 0 0 1-1.34 3.28 4.47 4.47 0 0 1-3.21 1.28h-.94v19.79c0 1.52.89 2.27 2.67 2.27h2.81v7zm3.08-35.3h4.83a4.43 4.43 0 0 1 3.22 1.34 4.38 4.38 0 0 1 1.34 3.18v31h-9.39V22.48zm38.01 23.89h6.69a14.62 14.62 0 0 1-5.62 8.56c-6.26 4.66-17.08 4.22-22.35-1.87q-4.28-4.81-4.28-13.78 0-8.56 4.15-13.37c5.84-6.75 18.42-6.6 24.36-.14a18.34 18.34 0 0 1 3.47 6.83h-9.36a7.69 7.69 0 0 0-1.34-2 6.41 6.41 0 0 0-5-1.88 6.52 6.52 0 0 0-4.81 1.87Q259 33.25 259 39.41t2.41 8.71a6.31 6.31 0 0 0 5.22 2.15 6.62 6.62 0 0 0 5.37-2.16 6.12 6.12 0 0 1 1.07-1.11 3.7 3.7 0 0 1 2.41-.67z" fill="#5e6981"/><path d="M247.28 20.72a21.55 21.55 0 0 0-4.46-1.48c-2.74-.59-6.41-.93-6.41-4.57 0-4.94 6.57-4.3 9-1.82a6.78 6.78 0 0 1 1.83 5v2.86z" fill="#0987f7"/><path class="cls-3" d="M14.93 42.25l14.91-8.61V16.42l-14.91 8.61v17.22zm14.91-8.61V16.42l14.91 8.61v17.22l-14.91-8.61z"/><path d="M58.91 16.85c-1.12-1.86-3-2.57-4.8-3.63L35.36 2.39C30-.73 30-.87 24.3 2.4l-9.38 5.41L44.75 25v17.25l-14.91 8.61-14.92-8.61V25L0 33.64v10.82C0 51 .12 50.92 5.53 54L24.3 64.88c5.41 3.12 5.41 3.27 11.06 0L54.14 54c5.41-3.12 5.52-3.06 5.52-9.58V22.79c0-2.12.34-4.07-.75-5.94z" fill="url(#linear-gradient)" fill-rule="evenodd"/><path d="M0 33.64v10.82C0 51 .12 50.92 5.53 54L24.3 64.88c5.41 3.12 5.41 3.27 11.06 0l-5.53-14-14.91-8.63V25L0 33.64z" fill="#0056b3" fill-rule="evenodd"/><path d="M58.9 16.86c-1.12-1.86-3-2.57-4.8-3.63L35.35 2.4c-5.4-3.12-5.41-3.26-11.06 0l-9.38 5.42L44.74 25v17.26l-14.92 8.61-14.91-8.61V25L0 33.65v10.83c0 6.52.11 6.46 5.52 9.58l18.77 10.83c5.41 3.12 5.41 3.27 11.06 0l18.77-10.83c5.41-3.12 5.52-3.06 5.52-9.58V22.8c.01-2.12.36-4.06-.74-5.94z" fill="#0088fb" opacity=".3" fill-rule="evenodd"/><path class="cls-3" d="M14.92 42.25l14.91-8.61V16.42l-14.91 8.61v17.22zm14.91-8.61V16.42l14.92 8.61v17.22l-14.92-8.61z"/></g></g></svg>