<svg xmlns="http://www.w3.org/2000/svg" xmlns:xlink="http://www.w3.org/1999/xlink" viewBox="0 0 106 24" fill="#fff" fill-rule="evenodd" stroke="#000" stroke-linecap="round" stroke-linejoin="round"><use xlink:href="#A" x=".5" y=".5"/><symbol id="A" overflow="visible"><g stroke="none" fill-rule="nonzero"><path d="M37.068 12.918l-.626 1.773H36.4c-.16-.594-.364-1.175-.61-1.74L32.425 4.52h-3.287v13.44h2.173V9.667l-.017-1.843-.07-.852h.052c.076.4.18.773.313 1.148l4.034 9.806h1.53l4-9.893c.087-.226.174-.678.26-1.06h.052L41.36 9.4v8.52h2.312V4.484H40.51zm8.798-4.642h2.26v9.632h-2.26zm1.148-4.068c-.383 0-.695.14-.956.383s-.4.556-.4.94a1.22 1.22 0 0 0 .4.921 1.34 1.34 0 0 0 .956.365 1.39 1.39 0 0 0 .956-.365 1.22 1.22 0 0 0 .4-.921c0-.365-.14-.678-.4-.94-.226-.243-.556-.383-.956-.383M56.142 8.2a6.3 6.3 0 0 0-1.27-.14c-1.026 0-1.965.226-2.747.678s-1.408 1.078-1.808 1.86c-.417.8-.626 1.72-.626 2.782a5.16 5.16 0 0 0 .609 2.486c.4.73.956 1.32 1.704 1.72.713.4 1.547.6 2.486.6 1.078 0 2-.226 2.73-.643l.017-.017V15.44l-.087.07c-.33.243-.713.452-1.095.574-.4.14-.765.2-1.078.2-.904 0-1.617-.26-2.12-.835-.522-.556-.782-1.32-.782-2.278 0-1 .26-1.773.8-2.347s1.252-.87 2.12-.87c.73 0 1.478.243 2.156.73l.087.07v-2.2l-.017-.017c-.296-.122-.626-.26-1.078-.348m7.46-.07a2.38 2.38 0 0 0-1.53.54c-.383.313-.643.765-.87 1.304h-.017V8.277h-2.26v9.632h2.26v-4.92c0-.835.174-1.53.556-2.034.383-.522.87-.782 1.46-.782.2 0 .417.052.678.087.243.07.417.14.54.226l.087.07v-2.26l-.052-.017c-.156-.104-.47-.156-.852-.156m6.155-.052c-1.582 0-2.85.47-3.738 1.4-.904.92-1.34 2.2-1.34 3.8 0 1.495.452 2.712 1.32 3.6.87.87 2.052 1.32 3.53 1.32 1.547 0 2.782-.47 3.67-1.408.904-.94 1.34-2.2 1.34-3.738 0-1.53-.417-2.747-1.27-3.634-.817-.887-2.017-1.32-3.512-1.32m1.808 7.407c-.417.54-1.078.8-1.895.8s-1.478-.26-1.947-.835c-.47-.54-.695-1.32-.695-2.312 0-1.026.243-1.808.695-2.365.47-.556 1.113-.835 1.93-.835.8 0 1.426.26 1.878.8s.695 1.32.695 2.347c-.035 1.043-.226 1.86-.66 2.4m8.015-3.2c-.713-.296-1.165-.522-1.374-.713-.174-.174-.26-.417-.26-.73 0-.26.104-.522.365-.695s.556-.26 1-.26a4.5 4.5 0 0 1 1.165.174c.383.104.73.26 1.008.47l.087.07v-2.12l-.052-.017c-.26-.104-.6-.2-1.026-.296a6.97 6.97 0 0 0-1.113-.104c-1.078 0-1.965.26-2.66.835a2.57 2.57 0 0 0-1.026 2.12c0 .452.07.852.226 1.182s.383.643.695.904c.313.243.765.522 1.4.782l1.165.54a2.36 2.36 0 0 1 .522.417.99.99 0 0 1 .14.54c0 .643-.487.956-1.478.956-.383 0-.782-.07-1.252-.226s-.904-.383-1.27-.643l-.087-.07v2.208l.052.017c.33.156.73.26 1.217.383.487.087.92.156 1.304.156 1.165 0 2.12-.26 2.8-.835a2.66 2.66 0 0 0 1.061-2.191c0-.643-.174-1.217-.556-1.652a7.05 7.05 0 0 0-2.034-1.2m8.554-4.208c-1.582 0-2.85.47-3.738 1.4s-1.34 2.2-1.34 3.8c0 1.495.452 2.712 1.32 3.6.87.87 2.052 1.32 3.53 1.32 1.547 0 2.782-.47 3.67-1.408.904-.94 1.34-2.2 1.34-3.738 0-1.53-.417-2.747-1.27-3.634-.817-.887-2.017-1.32-3.512-1.32m1.8 7.407c-.417.54-1.078.8-1.895.8-.835 0-1.478-.26-1.947-.835-.47-.54-.695-1.32-.695-2.312 0-1.026.243-1.808.695-2.365.47-.556 1.113-.835 1.93-.835.782 0 1.426.26 1.878.8s.695 1.32.695 2.347c0 1.043-.226 1.86-.66 2.4M105 10.16V8.3h-2.278V5.414l-.07.017-2.156.643-.052.017v2.173h-3.408V7.047c0-.556.14-1 .383-1.27s.6-.417 1.06-.417c.313 0 .643.07 1.008.226l.087.052V3.673l-.052-.017c-.313-.104-.73-.174-1.27-.174a4.07 4.07 0 0 0-1.808.417 3 3 0 0 0-1.234 1.234c-.296.522-.452 1.113-.452 1.8v1.34h-1.582v1.843h1.582v7.8h2.278v-7.772h3.408v4.955c0 2.034.956 3.06 2.87 3.06.313 0 .643-.052.956-.104.33-.07.574-.156.713-.226l.017-.017v-1.86l-.087.07a1.47 1.47 0 0 1-.469.209 1.59 1.59 0 0 1-.452.07c-.452 0-.765-.104-1-.365-.2-.243-.313-.643-.313-1.234v-4.555z" fill="#737373"/><path d="M0 0h10.658v10.658H0z" fill="#f25022"/><path d="M11.77 0h10.658v10.658H11.77z" fill="#7fba00"/><path d="M0 11.77h10.658v10.658H0z" fill="#00a4ef"/><path d="M11.77 11.77h10.658v10.658H11.77z" fill="#ffb900"/></g></symbol></svg>