<svg id="Layer_1" data-name="Layer 1" xmlns="http://www.w3.org/2000/svg" viewBox="0 0 884.41 428.71"><defs><style>.cls-1,.cls-2{fill:#0080ff;}.cls-2{fill-rule:evenodd;}</style></defs><title>digital_ocean_logo</title><path class="cls-1" d="M117.18,274.34V248.8a40.55,40.55,0,0,0,37.67-55.15,38.42,38.42,0,0,0-22.84-23,40.6,40.6,0,0,0-55.26,37.67H51.2a66.22,66.22,0,0,1,86.93-62.69,63.41,63.41,0,0,1,41.61,41.62,66.2,66.2,0,0,1-62.56,87Z"/><polygon class="cls-2" points="117.18 248.8 91.76 248.8 91.76 223.37 91.76 223.37 117.18 223.37 117.18 223.37 117.18 248.8"/><polygon class="cls-2" points="91.76 268.34 72.22 268.34 72.22 268.34 72.22 248.8 91.76 248.8 91.76 268.34"/><polygon class="cls-2" points="72.22 248.8 55.8 248.8 55.8 248.8 55.8 232.5 55.8 232.5 72.22 232.5 72.22 232.5 72.22 248.8"/><path class="cls-1" d="M285.8,180.64a48,48,0,0,0-27.9-7.94H234.36v75.69H257.9A45.38,45.38,0,0,0,285.8,240a27.63,27.63,0,0,0,9.65-12.12,48.09,48.09,0,0,0,0-35.32A26.83,26.83,0,0,0,285.8,180.64Zm-37.84,5h7.53A39.83,39.83,0,0,1,276,190.41a21.31,21.31,0,0,1,8.71,19.66,23,23,0,0,1-8.71,20.6h0a37.21,37.21,0,0,1-20.36,5H248Z"/><path class="cls-1" d="M315.52,171.76a7.91,7.91,0,0,0-5.88,2.35,8.07,8.07,0,0,0-2.47,5.89,7.57,7.57,0,0,0,2.47,5.88,8,8,0,0,0,5.88,2.47,7.4,7.4,0,0,0,5.89-2.47,8.26,8.26,0,0,0,2.53-5.88,7,7,0,0,0-2.53-5.89A8,8,0,0,0,315.52,171.76Z"/><rect class="cls-1" x="308.58" y="195.06" width="13.42" height="53.44"/><path class="cls-1" d="M370.91,199.54a20.16,20.16,0,0,0-13.42-5.89,24.64,24.64,0,0,0-18.37,7.59,26.48,26.48,0,0,0-7.18,19.13,27.26,27.26,0,0,0,7.18,19.19,24.61,24.61,0,0,0,18.37,7.53,20.86,20.86,0,0,0,13.3-4.29v1.29a14.27,14.27,0,0,1-3.53,10.3,13.06,13.06,0,0,1-9.65,3.53A17,17,0,0,1,342.77,249l-9.12,8.77v.36a32.66,32.66,0,0,0,9,8.12,27,27,0,0,0,14.95,3.88,25.82,25.82,0,0,0,19.18-7.29A26.32,26.32,0,0,0,384,243.44V195.06H371v4.48Zm-3.53,31.54a11.77,11.77,0,0,1-9.24,3.89,11.26,11.26,0,0,1-9.13-3.89,17.66,17.66,0,0,1,0-21,12.42,12.42,0,0,1,18.37,0,15.37,15.37,0,0,1,3.53,10.54A15.85,15.85,0,0,1,367.38,231.08Z"/><rect class="cls-1" x="395.51" y="195.06" width="13.42" height="53.44"/><path class="cls-1" d="M402.45,171.76a7.91,7.91,0,0,0-5.88,2.35A7.8,7.8,0,0,0,394.1,180a7.54,7.54,0,0,0,2.47,5.88,8,8,0,0,0,5.88,2.47,7.4,7.4,0,0,0,5.89-2.47,8.24,8.24,0,0,0,2.47-5.88,7,7,0,0,0-2.47-5.89A8,8,0,0,0,402.45,171.76Z"/><path class="cls-1" d="M438.41,180.76H425.23v14.48h-7.65v12.24h7.65v22.13a21.16,21.16,0,0,0,4.18,14.72,19.53,19.53,0,0,0,14.48,4.29h7.18V236.15h-4.59a8.7,8.7,0,0,1-6.36-1.3,11,11,0,0,1-1.59-7.06V207.37h12.54V195.06H438.53v-14.3Z"/><rect class="cls-1" x="513.87" y="172.7" width="13.42" height="75.69"/><path class="cls-1" d="M663,229.38a33.71,33.71,0,0,1-6.77,6.24h0a12.75,12.75,0,0,1-6.95,1.82,12.44,12.44,0,0,1-9.77-4.41,18.56,18.56,0,0,1,0-22.55,12.1,12.1,0,0,1,9.66-4.47,18.22,18.22,0,0,1,12.77,7.3l8.83-8.48h0a27.13,27.13,0,0,0-37.91-5.94,26.84,26.84,0,0,0-3.29,2.83,29.33,29.33,0,0,0,0,39.9,25.53,25.53,0,0,0,19,7.94,26.41,26.41,0,0,0,22.83-11.77Z"/><path class="cls-1" d="M718,202.54a21.61,21.61,0,0,0-7.66-6.42,25.87,25.87,0,0,0-11.06-2.35A22.55,22.55,0,0,0,681.07,202a30.6,30.6,0,0,0-6.82,20.07A27.93,27.93,0,0,0,681.72,242a25.9,25.9,0,0,0,19.42,7.65,26.42,26.42,0,0,0,22-11v-.35l-8.71-8.47h0a35.45,35.45,0,0,1-3,3.12,14.79,14.79,0,0,1-3.88,2.82,14.54,14.54,0,0,1-6.83,1.47,12.57,12.57,0,0,1-9.12-3.29,11.78,11.78,0,0,1-3.77-8.07h35.61V221a36,36,0,0,0-1.41-9.89A29,29,0,0,0,718,202.54Zm-29.43,12.59a13.23,13.23,0,0,1,3.53-6.35A9.55,9.55,0,0,1,699.2,206a9.67,9.67,0,0,1,7.42,2.77,10.58,10.58,0,0,1,2.7,6.24H688.61Z"/><path class="cls-1" d="M769.65,199.13h0A24.45,24.45,0,0,0,753,193.89a28.14,28.14,0,0,0-12.36,2.88,22.06,22.06,0,0,0-9.13,8.65h0l8.6,8.18a13.77,13.77,0,0,1,12.65-7.53,10.87,10.87,0,0,1,6.89,2.18,7,7,0,0,1,2.59,5.88v2.59a32.9,32.9,0,0,0-9.89-1.59,26.06,26.06,0,0,0-16.19,4.71,16.19,16.19,0,0,0-5.88,13.3,15.24,15.24,0,0,0,5.24,12.13,19.76,19.76,0,0,0,12.88,4.41,22.34,22.34,0,0,0,14.19-5.59v4.41h13.18V214.13A17.64,17.64,0,0,0,769.65,199.13Zm-23.54,29a11.29,11.29,0,0,1,6.41-1.59,29.49,29.49,0,0,1,10.13,1.95v5.23a16.22,16.22,0,0,1-11.77,4,8,8,0,0,1-5.36-1.53,5.13,5.13,0,0,1-1.82-4,5,5,0,0,1,2.11-4.12Z"/><path class="cls-1" d="M827.51,200.18a19.93,19.93,0,0,0-15.6-6.53A18.52,18.52,0,0,0,799,198.24V195H785.84v53.38h13.42V219a13.85,13.85,0,0,1,2.88-9.53,9.42,9.42,0,0,1,8-3.36,8.64,8.64,0,0,1,7,3,12.57,12.57,0,0,1,2.65,8.3v31h13.42v-30.9A24.79,24.79,0,0,0,827.51,200.18Z"/><path class="cls-1" d="M497,199.13h0a24.49,24.49,0,0,0-16.65-5.48A28.43,28.43,0,0,0,468,196.54a22.66,22.66,0,0,0-9.12,8.88h0l8.59,8.18a13.78,13.78,0,0,1,12.65-7.53,10.87,10.87,0,0,1,6.89,2.18,7,7,0,0,1,2.59,5.88v2.59a32.9,32.9,0,0,0-9.89-1.59,26,26,0,0,0-16.18,4.71,16.2,16.2,0,0,0-5.89,13.3,15.24,15.24,0,0,0,5.24,12.13,19.78,19.78,0,0,0,12.89,4.41,22.29,22.29,0,0,0,14.18-5.59v4.41H503.1V214.13A18.48,18.48,0,0,0,497,199.13Zm-23.54,29a11.26,11.26,0,0,1,6.36-1.59A29.31,29.31,0,0,1,490,228.44v5.23a16.22,16.22,0,0,1-11.77,4,8,8,0,0,1-5.36-1.53,5,5,0,0,1-1.82-4,4.59,4.59,0,0,1,2.12-4.12Z"/><path class="cls-1" d="M576,249.56a39.14,39.14,0,1,1,39.08-39.19v.11A39.14,39.14,0,0,1,576,249.56Zm0-64.27a25.31,25.31,0,1,0,25.31,25.31A25.31,25.31,0,0,0,576,185.29Z"/></svg>