<?xml version="1.0" encoding="UTF-8"?><svg xmlns="http://www.w3.org/2000/svg" width="710" height="392" version="1.0" shape-rendering="geometricPrecision"><defs><style type="text/css">@font-face {
  font-family: sans-serif;
}</style><filter id="shadowBlur" x="0" y="0" width="200%" height="200%"><feOffset in="SourceGraphic" dx="3.0003002" dy="3.0003002" result="offOut"></feOffset><feGaussianBlur in="offOut" stdDeviation="3"></feGaussianBlur></filter></defs><g stroke-width="1" stroke-linecap="square" stroke-linejoin="round"><rect x="0" y="0" width="710" height="392" style="fill: #ffffff"></rect><path stroke="#969696" fill="#969696" filter="url(#shadowBlur)" d="M685.0 147.0 L685.0 203.0 L545.0 203.0 L545.0 147.0 z"></path><path stroke="#969696" fill="#969696" filter="url(#shadowBlur)" d="M25.0 147.0 L25.0 203.0 L165.0 203.0 L165.0 147.0 z"></path><path stroke="#969696" fill="#969696" filter="url(#shadowBlur)" d="M425.0 35.0 L425.0 91.0 L285.0 91.0 L285.0 35.0 z"></path><path stroke="#969696" fill="#969696" filter="url(#shadowBlur)" d="M425.0 147.0 L425.0 203.0 L285.0 203.0 L285.0 147.0 z"></path><path stroke="#969696" fill="#969696" filter="url(#shadowBlur)" d="M425.0 259.0 L425.0 315.0 L285.0 315.0 L285.0 259.0 z"></path><path stroke="#000000" stroke-width="1.0" stroke-linecap="round" stroke-linejoin="round" fill="white" d="M685.0 147.0 L685.0 203.0 L545.0 203.0 L545.0 147.0 z"></path><path stroke="#000000" stroke-width="1.0" stroke-linecap="round" stroke-linejoin="round" fill="white" d="M25.0 147.0 L25.0 203.0 L165.0 203.0 L165.0 147.0 z"></path><path stroke="#000000" stroke-width="1.0" stroke-linecap="round" stroke-linejoin="round" fill="white" d="M425.0 35.0 L425.0 91.0 L285.0 91.0 L285.0 35.0 z"></path><path stroke="#000000" stroke-width="1.0" stroke-linecap="round" stroke-linejoin="round" fill="white" d="M425.0 147.0 L425.0 203.0 L285.0 203.0 L285.0 147.0 z"></path><path stroke="#000000" stroke-width="1.0" stroke-linecap="round" stroke-linejoin="round" fill="white" d="M425.0 259.0 L425.0 315.0 L285.0 315.0 L285.0 259.0 z"></path><path stroke="#000000" stroke-width="1.0" stroke-linecap="round" stroke-linejoin="round" fill="none" d="M85.0 217.0 L85.0 273.0 L275.0 273.0 "></path><path stroke="#000000" stroke-width="1.0" stroke-linecap="round" stroke-linejoin="round" fill="none" d="M435.0 189.0 L465.0 189.0 L465.0 245.0 L365.0 245.0 L365.0 217.0 "></path><path stroke="#000000" stroke-width="1.0" stroke-linecap="round" stroke-linejoin="round" fill="none" d="M435.0 301.0 L475.0 301.0 L475.0 357.0 L395.0 357.0 L395.0 329.0 "></path><path stroke="none" stroke-width="1.0" stroke-linecap="round" stroke-linejoin="round" fill="#000000" d="M350.0 126.0 L355.0 140.0 L360.0 126.0 z"></path><path stroke="none" stroke-width="1.0" stroke-linecap="round" stroke-linejoin="round" fill="#000000" d="M270.0 168.0 L280.0 175.0 L270.0 182.0 z"></path><path stroke="none" stroke-width="1.0" stroke-linecap="round" stroke-linejoin="round" fill="#000000" d="M440.0 168.0 L430.0 175.0 L440.0 182.0 z"></path><path stroke="none" stroke-width="1.0" stroke-linecap="round" stroke-linejoin="round" fill="#000000" d="M345.0 210.0 L340.0 224.0 L350.0 224.0 z"></path><path stroke="none" stroke-width="1.0" stroke-linecap="round" stroke-linejoin="round" fill="#000000" d="M365.0 210.0 L360.0 224.0 L370.0 224.0 z"></path><path stroke="none" stroke-width="1.0" stroke-linecap="round" stroke-linejoin="round" fill="#000000" d="M270.0 266.0 L280.0 273.0 L270.0 280.0 z"></path><path stroke="none" stroke-width="1.0" stroke-linecap="round" stroke-linejoin="round" fill="#000000" d="M395.0 322.0 L390.0 336.0 L400.0 336.0 z"></path><path stroke="#000000" stroke-width="1.0" stroke-linecap="round" stroke-linejoin="round" fill="none" d="M275.0 175.0 L175.0 175.0 "></path><path stroke="#000000" stroke-width="1.0" stroke-linecap="round" stroke-linejoin="round" fill="none" d="M435.0 175.0 L535.0 175.0 "></path><path stroke="#000000" stroke-width="1.0" stroke-linecap="round" stroke-linejoin="round" fill="none" d="M345.0 217.0 L345.0 245.0 "></path><path stroke="#000000" stroke-width="1.0" stroke-linecap="round" stroke-linejoin="round" fill="none" d="M355.0 105.0 L355.0 133.0 "></path><text x="54" y="181" font-family="sans-serif" font-size="16" stroke="none" fill="#000000"><![CDATA[Lognormal]]></text><text x="310" y="69" font-family="sans-serif" font-size="16" stroke="none" fill="#000000"><![CDATA[Exponential]]></text><text x="103" y="251" font-family="sans-serif" font-size="16" stroke="none" fill="#000000"><![CDATA[tau]]></text><text x="490" y="334" font-family="sans-serif" font-size="13" stroke="none" fill="#000000"><![CDATA[mu]]></text><text x="282" y="125" font-family="sans-serif" font-size="16" stroke="none" fill="#000000"><![CDATA[lambda]]></text><text x="331" y="180" font-family="sans-serif" font-size="13" stroke="none" fill="#000000"><![CDATA[Gamma]]></text><text x="584" y="181" font-family="sans-serif" font-size="16" stroke="none" fill="#000000"><![CDATA[Poisson]]></text><text x="323" y="293" font-family="sans-serif" font-size="16" stroke="none" fill="#000000"><![CDATA[Normal]]></text><text x="283" y="237" font-family="sans-serif" font-size="16" stroke="none" fill="#000000"><![CDATA[tau]]></text><text x="203" y="167" font-family="sans-serif" font-size="16" stroke="none" fill="#000000"><![CDATA[tau]]></text><text x="462" y="167" font-family="sans-serif" font-size="16" stroke="none" fill="#000000"><![CDATA[lambda]]></text><text x="484" y="223" font-family="sans-serif" font-size="16" stroke="none" fill="#000000"><![CDATA[beta]]></text></g></svg>