<svg xmlns="http://www.w3.org/2000/svg" xmlns:xlink="http://www.w3.org/1999/xlink" viewBox="0 0 114 50" fill="#fff" fill-rule="evenodd" stroke="#000" stroke-linecap="round" stroke-linejoin="round"><use xlink:href="#A" x=".5" y=".5"/><symbol id="A" overflow="visible"><g stroke="none" fill-rule="nonzero"><path d="M18.893 2.36l6.358 10.397a.12.12 0 0 1 0 .139.12.12 0 0 1-.166 0L16.878 4.31z" fill="#f05a28"/><path d="M4.855 30.325a28.29 28.29 0 0 1 5.601-7.957c.87-.878 1.797-1.7 2.773-2.458v6.072zm-4.852 5.6l13.244-6.747v15.425l2.985 3.92v-20.87l1.848-.924c2.54-1.28 4.323-3.685 4.8-6.486a9.01 9.01 0 0 0-2.342-7.728l-6.84-7.126c-.56-.6-.527-1.556.074-2.126.614-.567 1.57-.534 2.144.074l.924.998 2.042-1.96c-2.412-3.133-5.37-2.773-7.1-1.174-1.744 1.644-1.827 4.4-.185 6.137l6.876 7.162a6.15 6.15 0 0 1 1.605 5.06c-.258 1.843-1.338 3.47-2.935 4.423l-.924.48v-9.74A31.18 31.18 0 0 0 0 35.933" fill="#010000"/><path d="M28.09 14.515h4.638l5.053 8.145 5.053-8.145h4.6v19.308H43.22V21.227l-5.43 8.296h-.075l-5.43-8.22v12.52h-4.148zm24.36 0h4.223v19.308H52.46zm9.06 0h3.922l9.05 11.916V14.515h4.26v19.308h-3.62L65.77 21.53v12.294h-4.223zm22.02 0h4.3v19.308h-4.223zm18.6 19.684a10.94 10.94 0 0 1-4.148-.754 10.46 10.46 0 0 1-3.243-2.112 8.98 8.98 0 0 1-2.112-3.168c-.5-1.218-.767-2.526-.754-3.846a9.7 9.7 0 0 1 .754-3.846 9.95 9.95 0 0 1 5.43-5.355 11.06 11.06 0 0 1 8.22 0 10.46 10.46 0 0 1 3.243 2.112 8.98 8.98 0 0 1 2.112 3.168c.5 1.218.767 2.526.754 3.846a9.7 9.7 0 0 1-.754 3.846 9.95 9.95 0 0 1-5.43 5.355 10.83 10.83 0 0 1-4.073.754zm.075-3.922a6.13 6.13 0 0 0 2.338-.453c.677-.313 1.3-.747 1.8-1.282 1.07-1.145 1.665-2.655 1.66-4.223a5.72 5.72 0 0 0-.528-2.49 5.68 5.68 0 0 0-3.092-3.243 6.27 6.27 0 0 0-4.676 0c-.677.313-1.3.747-1.8 1.282-1.07 1.145-1.665 2.655-1.66 4.223a6.13 6.13 0 0 0 .453 2.338 5.68 5.68 0 0 0 3.092 3.243c.744.393 1.572.6 2.413.603z" fill="#000"/></g></symbol></svg>