<svg xmlns="http://www.w3.org/2000/svg" xmlns:xlink="http://www.w3.org/1999/xlink" viewBox="0 0 257.25 134.25" fill="#fff" fill-rule="evenodd" stroke="#000" stroke-linecap="round" stroke-linejoin="round"><use xlink:href="#A" x=".625" y=".625"/><symbol id="A" overflow="visible"><g stroke="none"><g fill-rule="nonzero"><path d="M0 120.426h8.434V87.134L21.5 116.167c1.54 3.5 3.65 4.758 7.785 4.758s6.163-1.244 7.705-4.758l13.058-29.034v33.305h8.435V87.19c0-3.244-1.3-4.812-3.975-5.622-6.406-2-10.705-.27-12.65 4.055l-12.812 28.654-12.4-28.666c-1.865-4.325-6.244-6.055-12.65-4.055C1.298 82.365 0 83.934 0 87.176v33.25zM65.483 93.32h8.43v18.35c-.08.998.32 3.338 4.94 3.41 2.357.038 18.192 0 18.34 0v-21.85h8.45c.038 0-.01 29.793-.007 29.92.046 7.347-9.118 8.944-13.34 9.067h-26.63v-5.675h26.677c5.427-.575 4.787-3.27 4.787-4.18v-2.225H79.206c-8.34-.075-13.65-3.716-13.716-7.904-.006-.375.18-18.744-.005-18.925z" fill="#00618a"/><path d="M112.145 120.426h24.247c2.838 0 5.596-.594 7.788-1.622 3.65-1.675 5.434-3.946 5.434-6.92v-6.163c0-2.434-2.028-4.704-6-6.218-2.11-.812-4.704-1.244-7.218-1.244h-10.22c-3.405 0-5.028-1.028-5.433-3.298-.08-.27-.08-.5-.08-.757v-3.838c0-.216 0-.434.08-.704.405-1.73 1.297-2.218 4.297-2.5.244 0 .568-.055.813-.055h24.085v-5.62h-23.68c-3.406 0-5.2.216-6.812.703-5.032 1.57-7.222 4.07-7.222 8.394v4.92c0 3.785 4.3 7.03 11.515 7.785.813.054 1.623.108 2.433.108h8.76c.325 0 .65 0 .893.055 2.675.216 3.813.703 4.623 1.675.5.5.65.975.65 1.5v4.92c0 .595-.405 1.352-1.216 2-.73.65-1.946 1.08-3.57 1.2-.325 0-.567.054-.89.054h-23.275v5.622zm90.08-9.785c0 5.785 4.297 9.03 12.975 9.677.81.063 1.62.1 2.433.108H239.6v-5.622h-22.14c-4.946 0-6.812-1.244-6.812-4.218V81.498h-8.434v29.14zm-47.23.293V90.9c0-5.093 3.575-8.18 10.645-9.156a16.16 16.16 0 0 1 2.276-.162h16.01c.79 0 1.576.055 2.357.162 7.07.975 10.645 4.063 10.645 9.156v20.044c0 4.13-1.52 6.343-5.02 7.784l8.307 7.5h-9.792l-6.72-6.067-6.766.43h-9.02c-1.544 0-3.17-.218-4.958-.705-5.375-1.463-7.962-4.28-7.962-8.94zm9.104-.5c0 .27.08.54.162.867.5 2.33 2.68 3.63 6 3.63h7.663l-7.038-6.354h9.793l6.125 5.54c1.13-.602 1.875-1.525 2.125-2.71.08-.27.08-.54.08-.812v-19.22c0-.216 0-.5-.08-.76-.5-2.166-2.683-3.412-5.933-3.412h-12.72c-3.75 0-6.175 1.625-6.175 4.17v19.07z" fill="#e48e00"/><path d="M247.03 72.17c-5.184-.14-9.145.34-12.53 1.77-.963.406-2.496.416-2.654 1.622.53.554.625 1.38 1.03 2.063.81 1.31 2.175 3.063 3.39 3.98 1.33 1.004 2.7 2.08 4.13 2.95 2.538 1.547 5.37 2.43 7.813 3.98 1.44.912 2.87 2.063 4.275 3.095.694.5 1.163 1.302 2.063 1.62v-.147c-.475-.604-.596-1.434-1.03-2.062l-1.916-1.916c-1.875-2.5-4.252-4.67-6.78-6.5-2.016-1.448-6.53-3.403-7.37-5.75l-.148-.147c1.43-.162 3.104-.68 4.425-1.03 2.216-.594 4.197-.44 6.5-1.03l3.096-.885v-.6c-1.157-1.187-1.982-2.76-3.244-3.832-3.3-2.812-6.904-5.62-10.625-7.963-2.058-1.3-4.6-2.142-6.78-3.244-.734-.37-2.023-.562-2.506-1.18-1.145-1.46-1.77-3.312-2.652-5-1.85-3.562-3.668-7.455-5.308-11.204-1.12-2.556-1.85-5.078-3.243-7.37-6.694-11.005-13.9-17.647-25.06-24.175-2.375-1.375-5.234-1.937-8.256-2.654l-4.865-.295c-1-.413-2.02-1.625-2.95-2.213-3.697-2.338-13.18-7.416-15.92-.75-1.73 4.216 2.584 8.33 4.128 10.468 1.082 1.5 2.47 3.18 3.242 4.865.51 1.108.597 2.22 1.032 3.39 1.07 2.875 2.004 6.03 3.4 8.698.7 1.35 1.472 2.772 2.36 3.98.544.74 1.475 1.067 1.62 2.212-.9 1.275-.963 3.25-1.475 4.865-2.304 7.265-1.435 16.294 1.916 21.67 1.03 1.65 3.45 5.2 6.78 3.832 2.912-1.187 2.25-4.875 3.096-8.107.188-.75.072-1.275.442-1.77v.148l2.654 5.306c1.962 3.163 5.45 6.47 8.402 8.7 1.53 1.156 2.75 3.156 4.718 3.832v-.147h-.148c-.384-.6-.984-.846-1.475-1.325-1.154-1.13-2.437-2.537-3.39-3.832-2.688-3.648-5.06-7.625-7.223-11.794-1.032-1.984-1.93-4.172-2.8-6.19-.335-.78-.33-1.955-1.03-2.36-.954 1.48-2.36 2.675-3.096 4.422-1.18 2.793-1.333 6.198-1.77 9.73-.26.093-.144.03-.295.148-2.053-.495-2.775-2.61-3.537-4.422-1.93-4.588-2.287-11.97-.6-17.248.438-1.365 2.425-5.668 1.62-6.93-.384-1.26-1.65-2-2.36-2.95-.875-1.188-1.752-2.755-2.36-4.128-1.58-3.575-2.317-7.588-3.98-11.204-.795-1.728-2.125-3.475-3.243-5-1.222-1.7-2.59-2.955-3.537-5-.338-.73-.795-1.9-.295-2.654.097-.442.443-.788.885-.885.855-.66 3.25.22 4.127.6 2.375.982 4.338 1.917 6.34 3.244.963.625 1.934 1.87 3.095 2.213h1.325c2.075.477 4.4.15 6.338.75 3.428 1.04 6.498 2.662 9.287 4.422 8.498 5.365 15.444 13.003 20.196 22.125.765 1.466 1.095 2.867 1.77 4.422 1.36 3.125 3.07 6.366 4.423 9.434s2.662 6.15 4.57 8.697c1.002 1.337 4.875 2.057 6.634 2.8 1.234.52 3.254 1.065 4.423 1.77 2.23 1.346 4.394 2.95 6.5 4.425 1.046.75 4.25 2.354 4.423 3.685z" fill="#00618a"/></g><path d="M181.125 16.007c-1.08-.02-1.845.117-2.654.295v.148h.148c.515 1.06 1.425 1.74 2.063 2.654l1.475 3.095.148-.148c.912-.644 1.33-1.672 1.325-3.244-.366-.385-.42-.867-.75-1.327-.42-.625-1.25-.96-1.77-1.475z" fill="#00618a"/><path d="M243.57 114.644c0 3.712 2.934 6.215 6.215 6.215s6.215-2.503 6.215-6.215-2.934-6.215-6.215-6.215-6.215 2.502-6.215 6.215zm11.037 0c0 2.817-2.154 4.922-4.825 4.922-2.7 0-4.825-2.105-4.825-4.922s2.123-4.922 4.825-4.922c2.67 0 4.825 2.105 4.825 4.922zm-3.15 3.547h1.39l-2.038-3.115c1.094-.116 1.92-.647 1.92-1.94 0-1.442-.912-2.037-2.667-2.037h-2.77v7.094h1.194v-3.066h1.1l1.856 3.066zm-2.968-4.062v-2.038h1.375c.713 0 1.575.133 1.575.963 0 .994-.78 1.078-1.675 1.078h-1.275z" fill="#e48e00"/></g></symbol></svg>