<?xml version="1.0" encoding="UTF-8" standalone="no"?>
<svg
   xmlns:dc="http://purl.org/dc/elements/1.1/"
   xmlns:cc="http://creativecommons.org/ns#"
   xmlns:rdf="http://www.w3.org/1999/02/22-rdf-syntax-ns#"
   xmlns:svg="http://www.w3.org/2000/svg"
   xmlns="http://www.w3.org/2000/svg"
   xmlns:sodipodi="http://sodipodi.sourceforge.net/DTD/sodipodi-0.dtd"
   xmlns:inkscape="http://www.inkscape.org/namespaces/inkscape"
   version="1.1"
   id="Layer_1"
   x="0px"
   y="0px"
   viewBox="0 0 500.5 198.3"
   style="enable-background:new 0 0 500.5 198.3;"
   xml:space="preserve"
   sodipodi:docname="nginx.svg"
   inkscape:export-filename="/home/akosma/Downloads/nginx.png"
   inkscape:export-xdpi="96"
   inkscape:export-ydpi="96"
   inkscape:version="1.0.1 (3bc2e813f5, 2020-09-07)"><metadata
   id="metadata41"><rdf:RDF><cc:Work
       rdf:about=""><dc:format>image/svg+xml</dc:format><dc:type
         rdf:resource="http://purl.org/dc/dcmitype/StillImage" /><dc:title></dc:title></cc:Work></rdf:RDF></metadata><defs
   id="defs39" /><sodipodi:namedview
   pagecolor="#ffffff"
   bordercolor="#666666"
   borderopacity="1"
   objecttolerance="10"
   gridtolerance="10"
   guidetolerance="10"
   inkscape:pageopacity="0"
   inkscape:pageshadow="2"
   inkscape:window-width="1866"
   inkscape:window-height="1016"
   id="namedview37"
   showgrid="false"
   inkscape:zoom="0.5"
   inkscape:cx="233.72593"
   inkscape:cy="99.150002"
   inkscape:window-x="54"
   inkscape:window-y="27"
   inkscape:window-maximized="1"
   inkscape:current-layer="layer1"
   inkscape:document-rotation="0" />
<style
   type="text/css"
   id="style2">
	.st0{fill:#999999;}
	.st1{fill:#FFFFFF;}
	.st2{fill:#009639;}
</style>
















<g
   inkscape:groupmode="layer"
   id="layer1"
   inkscape:label="Layer 1"
   style="display:inline;opacity:1"><rect
     style="fill:#222222;fill-opacity:1;stroke:none;stroke-width:1.01932"
     id="rect869"
     width="511.45728"
     height="203.07214"
     x="-4.6923828"
     y="-1.8153354" /></g><g
   inkscape:groupmode="layer"
   id="layer2"
   inkscape:label="Layer 2"><path
     class="st0"
     d="m 337.66913,153.65186 h -3.651 v -4.92461 h 8.49071 v -2.2076 h -10.86811 v 9.3398 h 5.85859 c 2.12267,0 3.31138,0.93398 3.31138,2.71703 v 1.86795 c 0,1.95287 -1.35853,3.05666 -3.73591,3.05666 -2.2925,0 -3.65101,-1.10379 -3.65101,-3.05666 v -1.78305 h -2.3774 v 1.69815 c 0,3.22647 2.3774,5.26424 5.94349,5.26424 3.65101,0 6.02841,-2.12268 6.02841,-5.26424 v -1.78305 c 0.16982,-2.97175 -2.03776,-4.92462 -5.34915,-4.92462"
     id="path4"
     style="fill:#999999;stroke-width:0.84907"
     inkscape:export-xdpi="96"
     inkscape:export-ydpi="96" /><polygon
     class="st0"
     points="331.9,167.4 341.6,167.4 341.6,164.7 331.9,164.7 331.9,156.7 342.7,156.7 342.7,154.1 329.1,154.1 329.1,176.3 331.9,176.3 "
     id="polygon6"
     style="fill:#999999"
     transform="matrix(0.84907138,0,0,0.84907138,38.031845,15.592863)"
     inkscape:export-xdpi="96"
     inkscape:export-ydpi="96" /><path
     class="st0"
     d="m 307.86673,146.85928 h 1.1887 v -2.12267 h -1.44342 c -3.05665,0 -4.83972,1.86796 -4.83972,5.09444 v 1.95285 h -1.52832 v 2.12268 h 1.61324 v 11.37756 h 2.29248 v -11.37756 h 3.73593 v -2.12268 h -3.73593 v -1.78305 c -0.0849,-2.20759 0.76417,-3.14157 2.71704,-3.14157"
     id="path8"
     style="fill:#999999;stroke-width:0.84907"
     inkscape:export-xdpi="96"
     inkscape:export-ydpi="96" /><path
     class="st0"
     d="m 278.23414,163.16146 c -1.86796,0 -2.71703,-0.84907 -2.71703,-3.05666 v -6.19822 h 3.65101 v -2.12268 h -3.65101 v -3.99064 h -2.2925 v 3.99064 h -1.78305 v 2.12268 h 1.78305 v 6.70767 c 0,3.22646 1.52833,4.66989 4.50009,4.66989 h 1.69813 v -2.12268 z"
     id="path10"
     style="fill:#999999;stroke-width:0.84907"
     inkscape:export-xdpi="96"
     inkscape:export-ydpi="96" /><path
     class="st0"
     d="m 268.89435,151.52917 c -1.52833,-0.0848 -3.05666,0.50946 -4.16044,1.61325 l -0.42454,-1.35852 h -1.61324 v 13.50024 h 2.29249 v -8.49071 c 0,-2.20758 1.61323,-3.22647 3.56611,-3.22647 0.42453,0 0.76415,0.0848 1.18869,0.16982 v -2.12269 c -0.33962,-0.0849 -0.59434,-0.0849 -0.84907,-0.0849"
     id="path12"
     style="fill:#999999;stroke-width:0.84907"
     inkscape:export-xdpi="96"
     inkscape:export-ydpi="96" /><polygon
     class="st1"
     points="436.3,65.1 422.8,65.1 442.9,98 422.6,132 435.4,132 449.7,109 463.7,132 477.2,132 456.9,98.8 477.7,65.1 464.7,65.1 450.3,87.8 "
     id="polygon14"
     style="fill:#ffffff"
     transform="matrix(0.84907138,0,0,0.84907138,38.031845,15.592863)"
     inkscape:export-xdpi="96"
     inkscape:export-ydpi="96" /><polygon
     class="st1"
     points="379.6,132 379.6,86.7 405.9,132 416.9,132 416.9,65.1 405.9,65.1 405.9,110.6 379.6,65.1 368.8,65.1 368.8,132 "
     id="polygon16"
     style="fill:#ffffff"
     transform="matrix(0.84907138,0,0,0.84907138,38.031845,15.592863)"
     inkscape:export-xdpi="96"
     inkscape:export-ydpi="96" /><rect
     x="333.67853"
     y="70.867416"
     class="st1"
     width="9.8492289"
     height="56.802876"
     id="rect18"
     style="fill:#ffffff;stroke-width:0.84907"
     inkscape:export-xdpi="96"
     inkscape:export-ydpi="96" /><path
     class="st1"
     d="m 326.03686,91.075308 v -3.226471 c 0,-11.037927 -8.06619,-18.170128 -22.33058,-18.170128 -14.09458,0 -22.24568,7.132201 -22.24568,18.170128 v 22.840013 c 0,11.03794 8.1511,18.17012 22.33058,18.17012 14.17949,0 22.24568,-7.13218 22.24568,-18.17012 V 97.358436 h -22.67021 v 9.085074 h 12.73607 v 3.65099 c 0,5.94351 -4.50007,9.59451 -12.48136,9.59451 -7.89635,0 -12.39643,-3.651 -12.39643,-9.59451 V 88.443186 c 0,-5.943498 4.50008,-9.594506 12.48135,-9.594506 7.89637,0 12.39644,3.651008 12.39644,9.594506 v 2.632122 z"
     id="path20"
     style="fill:#ffffff;stroke-width:0.84907"
     inkscape:export-xdpi="96"
     inkscape:export-ydpi="96" /><polygon
     class="st1"
     points="240.5,132 240.5,86.7 266.8,132 277.7,132 277.7,65.1 266.8,65.1 266.8,110.6 240.5,65.1 229.6,65.1 229.6,132 "
     id="polygon22"
     style="fill:#ffffff"
     transform="matrix(0.84907138,0,0,0.84907138,38.031845,15.592863)"
     inkscape:export-xdpi="96"
     inkscape:export-ydpi="96" /><path
     class="st0"
     d="m 293.51742,151.44428 c -3.73592,0 -5.77369,2.12268 -5.77369,5.60386 v 2.97175 c 0,3.4812 1.95287,5.60388 5.77369,5.60388 3.73591,0 5.77368,-2.12268 5.77368,-5.60388 v -2.97175 c 0,-3.48118 -1.95287,-5.60386 -5.77368,-5.60386 z m 3.56611,8.49071 c 0,2.3774 -1.10381,3.5661 -3.48121,3.5661 -2.46231,0 -3.48118,-1.1887 -3.48118,-3.5661 v -2.71703 c 0,-2.3774 1.10379,-3.5661 3.48118,-3.5661 2.46232,0 3.48121,1.1887 3.48121,3.5661 z"
     id="path24"
     style="fill:#999999;stroke-width:0.84907"
     inkscape:export-xdpi="96"
     inkscape:export-ydpi="96" /><path
     class="st0"
     d="m 258.02624,151.7839 -0.42454,1.35852 c -1.10379,-1.1887 -2.63212,-1.78306 -4.24534,-1.69814 -3.3114,0 -5.26425,1.61322 -5.26425,5.68878 v 2.80193 c 0,3.99064 1.95285,5.68878 5.26425,5.68878 1.61322,0.0848 3.14155,-0.50945 4.24534,-1.69814 l 0.42454,1.35851 h 1.61322 V 151.7839 Z m -4.24535,11.71719 c -2.2925,0 -3.3963,-1.10379 -3.3963,-3.65101 v -2.5472 c 0,-2.54723 1.1038,-3.65102 3.3963,-3.65102 2.12267,0 3.39628,1.01888 3.5661,3.22647 v 3.39628 c -0.16982,2.20759 -1.52834,3.22648 -3.5661,3.22648"
     id="path26"
     style="fill:#999999;stroke-width:0.84907"
     inkscape:export-xdpi="96"
     inkscape:export-ydpi="96" /><path
     class="st0"
     d="m 240.36555,146.43475 h -7.38693 v 18.84939 h 2.37742 v -6.87748 h 5.00951 c 3.65101,0 5.77368,-1.86797 5.77368,-5.00952 v -1.95286 c 0,-3.14157 -2.12267,-5.00953 -5.77368,-5.00953 m 3.48119,7.04729 c 0,1.78306 -1.10378,2.71703 -3.31137,2.71703 h -5.17933 v -7.55673 h 5.17933 c 2.20759,0 3.31137,0.93398 3.31137,2.71702 z"
     id="path28"
     style="fill:#999999;stroke-width:0.84907"
     inkscape:export-xdpi="96"
     inkscape:export-ydpi="96" /><path
     class="st2"
     d="m 39.220548,141.84977 c 0.764164,1.35851 1.867955,2.3774 3.22647,3.14157 l 65.378492,37.69876 v 0 c 2.71703,1.61323 6.0284,1.61323 8.66054,0 l 65.37849,-37.69876 c 2.71703,-1.52834 4.33026,-4.41517 4.33026,-7.55674 v -75.397532 0 c 0,-3.141565 -1.61323,-6.028409 -4.33026,-7.556736 L 116.48605,16.781563 v 0 c -2.71704,-1.613235 -6.02841,-1.613235 -8.66054,0 v 0 L 42.447018,54.480332 c -2.801935,1.528327 -4.415173,4.415171 -4.415173,7.556736 v 0 75.482442 c 0,1.52831 0.339632,2.97174 1.188703,4.33026"
     id="path30"
     style="fill:#009639;stroke-width:0.84907"
     inkscape:export-xdpi="96"
     inkscape:export-ydpi="96" /><path
     class="st1"
     d="m 91.183717,128.51934 c 0,4.6699 -3.73592,8.40582 -8.405802,8.40582 -4.669896,0 -8.405816,-3.73592 -8.405816,-8.40582 v 0 -57.651931 c 0,-4.500078 3.990643,-8.151086 9.50959,-8.151086 3.990643,0 8.660545,1.613236 11.462469,5.09443 l 2.547214,3.056656 35.151558,42.029051 v -41.859237 0 c 0,-4.669892 3.73592,-8.405807 8.40581,-8.405807 4.66988,0 8.4058,3.735915 8.4058,8.405807 v 0 57.651937 c 0,4.50008 -3.99062,8.15108 -9.50959,8.15108 -3.99064,0 -8.66053,-1.61322 -11.46247,-5.09443 L 91.183717,86.745044 Z"
     id="path32"
     style="fill:#ffffff;stroke-width:0.84907"
     inkscape:export-xdpi="96"
     inkscape:export-ydpi="96" /><path
     class="st0"
     d="m 455.26551,125.12306 h 1.1038 v -2.3774 h 0.84907 c 0.42453,0 0.84907,0 1.1887,0.16983 0.42453,0.33962 0.67926,0.84907 0.59434,1.3585 v 0.50945 0.16981 c 0,0 0,0.085 0,0.085 0,0 0,0 0,0.0848 h 1.01889 v -0.0848 c 0,-0.085 -0.0849,-0.16981 -0.0849,-0.33963 0,-0.1698 0,-0.33962 0,-0.42454 v -0.42454 c 0,-0.33961 -0.16982,-0.67924 -0.33964,-0.93396 -0.25472,-0.33963 -0.67925,-0.50945 -1.01888,-0.59435 0.33963,0 0.59435,-0.16982 0.84907,-0.25472 0.42453,-0.25472 0.59435,-0.76417 0.59435,-1.1887 0.0849,-0.67926 -0.33963,-1.27361 -0.93397,-1.52834 -0.50945,-0.1698 -1.10379,-0.25471 -1.69814,-0.25471 h -2.12268 z m 3.05667,-3.31136 c -0.33964,0.0849 -0.67927,0.1698 -1.01891,0.1698 h -0.93396 v -2.20757 h 0.93396 c 0.42454,0 0.84908,0.0849 1.27361,0.25471 0.25473,0.16981 0.42454,0.50944 0.42454,0.84907 -0.0848,0.42454 -0.33962,0.84908 -0.67924,0.93399 m 3.05665,-3.65102 c -1.01888,-1.01889 -2.46231,-1.61322 -3.90572,-1.61322 -3.05667,0 -5.51898,2.46229 -5.51898,5.60386 0,3.05665 2.46231,5.51895 5.51898,5.51895 3.05665,0 5.60387,-2.4623 5.60387,-5.51895 -0.0849,-1.52832 -0.59436,-2.88684 -1.69815,-3.99064 m -0.50945,0.59436 c 0.93398,0.84907 1.44342,2.12267 1.35852,3.39628 0,2.63212 -2.12267,4.7548 -4.75479,4.8397 -1.2736,0 -2.54722,-0.50944 -3.39629,-1.44343 -0.93399,-0.93397 -1.35852,-2.12266 -1.35852,-3.39627 0,-2.63212 2.12268,-4.75479 4.75481,-4.75479 1.2736,-0.0849 2.4623,0.42453 3.39627,1.35851"
     id="path34"
     style="fill:#999999;stroke-width:0.84907"
     inkscape:export-xdpi="96"
     inkscape:export-ydpi="96" /></g></svg>
